<?xml version="1.0" encoding="UTF-8"?><svg id="Layer_1" xmlns="http://www.w3.org/2000/svg" viewBox="0 0 591.22 406.02"><defs><style>.cls-1{fill:#d9bb83;}.cls-1,.cls-2,.cls-3,.cls-4,.cls-5,.cls-6,.cls-7,.cls-8{stroke-width:0px;}.cls-2{fill:#f8ce3a;}.cls-3{fill:#ad8d2f;}.cls-4{fill:#151512;}.cls-5{fill:#851c1a;}.cls-6{fill:#431514;}.cls-7{fill:#821c1a;}.cls-8{fill:#f8ce39;}</style></defs><path class="cls-8" d="m485.96,212.3s22.65-40.09,30.36-68.5c7.39-27.24,8.42-58.84,5.25-86.01-3.33-28.51-15.49-43.81-26.85-50.4-11.36-6.59-35.05-8.74-56.43.97-18.5,8.41-33.51,17.55-45.54,30.55-12.02,13-19.16,33.79-19.16,33.79l112.37,139.6Z"/><path class="cls-7" d="m472.15,191.29s9.15-14.59,14.79-32.89,11.87-32.69,14.98-52.15,4.67-43.98-8.95-58.77-29.38-14.59-43.01-11.68-24.13,14.01-31.72,22.18-24.91,34.44-24.91,34.44l78.81,98.85Z"/><path class="cls-2" d="m480.71,2.14s-31.78.87-50.54,11.82c-18.2,10.63-38.39,28.59-46.11,39.79-7.73,11.2-10.46,18.96-10.46,18.96l-333.64,13.7s.58-10.51,8.37-21.6,19.85-21.99,31.14-28.8,32.5-9.73,32.5-9.73L406.7,4.79s4.08-2.67,8.63-3.43c5.91-.24,65.38.78,65.38.78Z"/><path class="cls-7" d="m407.93,4.48s-20.52,8.8-36.98,24.59c-16.46,15.79-15.95,21.53-15.95,21.53l-281.77,15.57s9.15-16.46,29.77-27.83c20.62-11.37,32.11-14.59,32.11-14.59L407.93,4.48Z"/><polygon class="cls-3" points="39.95 86.4 373.59 72.7 485.96 212.3 189.6 213.28 39.95 86.4"/><polygon class="cls-6" points="60.19 91.66 365.14 78.99 468.26 206.8 195.56 207.69 60.19 91.66"/><path class="cls-2" d="m5.85,214.38l33.26,165.23c.62,3.06,3.19,5.34,6.3,5.58l268.58,20.82c.44.03.89.03,1.33-.02l134.75-15.41c3.09-.35,5.57-2.7,6.09-5.77l29.22-172.3-156.19.52-323.34,1.36Z"/><polygon class="cls-5" points="460.34 212.76 438.16 358.05 340.6 364.8 351.11 212.76 460.34 212.76"/><polygon class="cls-5" points="278.46 213.15 278.85 360.65 59.35 349.75 36.52 214.18 278.46 213.15"/><polygon class="cls-2" points="143.67 255.05 153.27 278.92 183.63 279.44 162.61 303.83 169.62 333.66 143.67 313.43 120.06 331.59 126.81 302.53 106.57 280.22 133.03 279.44 143.67 255.05"/><polygon class="cls-1" points="84.78 193.56 91 243.37 190.63 242.85 185.45 190.96 84.78 193.56"/><path class="cls-4" d="m140.3,234.55l-16.09,1.04,5.71-14.53s-9.6-3.89-9.34-11.42,2.08-9.86,10.38-10.38,12.97,5.45,12.45,10.9-7.78,10.38-7.78,10.38l4.67,14.01Z"/></svg>