<?xml version="1.0" encoding="UTF-8"?><svg id="Layer_1" xmlns="http://www.w3.org/2000/svg" viewBox="0 0 591.22 406.02"><defs><style>.cls-1{fill:#d9bb83;}.cls-1,.cls-2,.cls-3,.cls-4,.cls-5,.cls-6{stroke-width:0px;}.cls-2{fill:#f8ce3a;}.cls-3{fill:#151512;}.cls-4{fill:#851c1a;}.cls-5{fill:#821c1a;}.cls-6{fill:#f8ce39;}</style></defs><path class="cls-2" d="m5.85,214.38l33.26,165.23c.62,3.06,3.19,5.34,6.3,5.58l268.58,20.82c.44.03.89.03,1.33-.02l134.75-15.41c3.09-.35,5.57-2.7,6.09-5.77l29.22-172.3-156.19.52-323.34,1.36Z"/><polygon class="cls-4" points="460.34 212.76 438.16 358.05 340.6 364.8 351.11 212.76 460.34 212.76"/><polygon class="cls-4" points="278.46 213.15 278.85 360.65 59.35 349.75 36.52 214.18 278.46 213.15"/><polygon class="cls-2" points="143.67 255.05 153.27 278.92 183.63 279.44 162.61 303.83 169.62 333.66 143.67 313.43 120.06 331.59 126.81 302.53 106.57 280.22 133.03 279.44 143.67 255.05"/><path class="cls-6" d="m489.01,216.13s3.63-41.77,1.56-68.5c-1.95-25.13-11.16-59.68-25.43-74.72-14.97-15.79-39.44-15.83-51.89-10.9s-33.73,24.65-47.74,48.26c-12.12,20.43-23.55,46.51-28.22,64.67s-9.15,43.26-9.15,43.26l160.86-2.08Z"/><path class="cls-5" d="m456.97,216.52s1.19-10.06,4.02-34.64c2.34-20.24,3.27-33.44-1.04-52.93-4.41-19.98-14.27-38.14-28.8-38.14s-21.02,4.15-35.55,24.39c-13.44,18.72-20.24,36.06-26.46,57.34s-9.6,45.28-9.6,45.28l97.43-1.3Z"/><path class="cls-2" d="m434.53,58.9s-31.91,6.75-50.34,29.84-37.88,61.23-45.66,85.88-10.38,43.59-10.38,43.59L.71,219.76s-2.76-33.15,2.59-55.01c6.23-25.43,17.51-42.44,31.39-56.56,14.79-15.05,36.32-26.98,36.32-26.98l295.01-15.57s8.56-5.97,12.97-7.26c5.71,0,55.52.52,55.52.52Z"/><path class="cls-5" d="m366.09,65.38s-23.16,17.9-39.5,52.15-21.79,61.75-21.79,61.75l-267.76-2.59s10.64-42.29,30.88-66.16,40.35-31.14,40.35-31.14l257.84-14.01Z"/><polygon class="cls-1" points="84.78 193.56 91 243.37 190.63 242.85 185.45 190.96 84.78 193.56"/><path class="cls-3" d="m140.3,234.55l-16.09,1.04,5.71-14.53s-9.6-3.89-9.34-11.42,2.08-9.86,10.38-10.38,12.97,5.45,12.45,10.9-7.78,10.38-7.78,10.38l4.67,14.01Z"/></svg>