<?xml version="1.0" encoding="UTF-8"?><svg id="Layer_1" xmlns="http://www.w3.org/2000/svg" viewBox="0 0 591.22 406.02"><defs><style>.cls-1{fill:#d9bb83;}.cls-1,.cls-2,.cls-3,.cls-4,.cls-5,.cls-6,.cls-7,.cls-8{stroke-width:0px;}.cls-2{fill:#f8ce3a;}.cls-3{fill:#ad8d2f;}.cls-4{fill:#151512;}.cls-5{fill:#851c1a;}.cls-6{fill:#431514;}.cls-7{fill:#821c1a;}.cls-8{fill:#f8ce39;}</style></defs><path class="cls-8" d="m482.28,218.08s42.66-26.66,63.55-48.75c18.6-19.67,32.92-41.9,41.01-65.16,7.99-22.97,3.44-45.65-1.04-57.6s-16.09-23.87-34.77-32.95c-16.97-8.25-39.9-8.57-55.78-7.78-16.47.81-31.39,10.9-31.39,10.9l18.42,201.34Z"/><path class="cls-7" d="m480.21,185.4s17.53-7.8,33.99-20c15.05-11.16,25.55-22.18,37.1-36.84,11.01-13.98,23.18-36.86,18.42-56.3-4.63-18.95-12.71-29.06-26.46-33.47s-29.17-4.25-39.26-3.42-39.04,8.52-39.04,8.52l15.25,141.51Z"/><path class="cls-2" d="m538.07,8.95s-12.45-3.89-35.81-2.34c-10.64.71-24.67,4.93-27.79,6.23s-11.68,4.15-11.68,4.15l-300.17,15.82s.66-2.03,9.34-7.29c9-5.45,14.68-6.78,27.76-10.1,16.35-4.15,35.81-4.15,35.81-4.15L480.99.39s15.2.23,28.41,1.95c15.5,2.01,28.67,6.62,28.67,6.62Z"/><path class="cls-7" d="m483.91,0s-4.86,1.56-9.34,2.53c-6.22,1.35-10.7,3.11-10.7,3.11l-256.35,13.43s14.52-3.15,23.87-5.45c7.14-1.75,19.46-3.37,19.46-3.37L483.91,0Z"/><polygon class="cls-3" points="162.11 32.3 463.59 15.67 482.8 216.78 187.64 214.34 162.11 32.3"/><polygon class="cls-6" points="176.46 39.3 452.42 23.54 468.92 208.3 198.43 205.62 176.46 39.3"/><path class="cls-2" d="m5.85,214.38l33.26,165.23c.62,3.06,3.19,5.34,6.3,5.58l268.58,20.82c.44.03.89.03,1.33-.02l134.75-15.41c3.09-.35,5.57-2.7,6.09-5.77l29.22-172.3-156.19.52-323.34,1.36Z"/><polygon class="cls-5" points="460.34 212.76 438.16 358.05 340.6 364.8 351.11 212.76 460.34 212.76"/><polygon class="cls-5" points="278.46 213.15 278.85 360.65 59.35 349.75 36.52 214.18 278.46 213.15"/><polygon class="cls-2" points="143.67 255.05 153.27 278.92 183.63 279.44 162.61 303.83 169.62 333.66 143.67 313.43 120.06 331.59 126.81 302.53 106.57 280.22 133.03 279.44 143.67 255.05"/><polygon class="cls-1" points="84.78 193.56 91 243.37 190.63 242.85 185.45 190.96 84.78 193.56"/><path class="cls-4" d="m140.3,234.55l-16.09,1.04,5.71-14.53s-9.6-3.89-9.34-11.42,2.08-9.86,10.38-10.38,12.97,5.45,12.45,10.9-7.78,10.38-7.78,10.38l4.67,14.01Z"/></svg>