<?xml version="1.0" encoding="UTF-8"?><svg id="Layer_1" xmlns="http://www.w3.org/2000/svg" viewBox="0 0 591.22 406.02"><defs><style>.cls-1{fill:#d9bb83;}.cls-1,.cls-2,.cls-3,.cls-4,.cls-5,.cls-6,.cls-7,.cls-8{stroke-width:0px;}.cls-2{fill:#f8ce3a;}.cls-3{fill:#ad8d2f;}.cls-4{fill:#151512;}.cls-5{fill:#851c1a;}.cls-6{fill:#431514;}.cls-7{fill:#821c1a;}.cls-8{fill:#f8ce39;}</style></defs><path class="cls-8" d="m485.15,213.54s17.83-33.05,25.83-58.1c7.82-24.5,12.76-62.94,4.87-85.7-8.61-24.83-33.86-38.25-48.89-39.64s-45.16,8.92-68.32,27.34c-19.64,15.63-39.81,37.21-49.99,53.5s-19.13,39.93-19.13,39.93l155.64,62.66Z"/><path class="cls-7" d="m455.48,202.75s4.43-8.24,15.42-28.84c9.32-17.46,14.96-29.37,18-50,3.22-21.86.39-45.37-14.33-52.82s-23.21-6.53-45.54,7.41c-20.35,12.7-33.01,27.09-46.03,45.38s-22.89,39.05-22.89,39.05l95.36,39.82Z"/><path class="cls-2" d="m463.47,29.37s-32.52,5.12-55.37,22.89c-22.05,17.15-49.38,46.66-61.83,65.23-12.37,18.44-16.76,33.39-16.76,33.39l-324.81-1.36s4.39-22.29,13-39.02c10.08-19.59,24.06-32.78,40.28-43.77,17.33-11.74,41.03-21.06,41.03-21.06l296.24-11.31s9.63-4.61,14.22-5.6c5.58.02,54.01.6,54.01.6Z"/><path class="cls-7" d="m395.35,34.17s-26.37,13.8-49.28,40.1c-22.7,26.06-33.34,46.79-33.34,46.79l-263.03-1.48s17.23-32.48,41.39-50.98c24.29-18.6,45.76-24.25,45.76-24.25l258.51-10.18Z"/><polygon class="cls-3" points="4.7 149.52 130.83 213.25 485.15 213.54 329.51 150.88 4.7 149.52"/><polygon class="cls-6" points="30.42 156.62 141.58 208.53 453.86 208.78 316.69 157.73 30.42 156.62"/><path class="cls-2" d="m5.85,214.38l33.26,165.23c.62,3.06,3.19,5.34,6.3,5.58l268.58,20.82c.44.03.89.03,1.33-.02l134.75-15.41c3.09-.35,5.57-2.7,6.09-5.77l29.22-172.3-156.19.52-323.34,1.36Z"/><polygon class="cls-5" points="460.34 212.76 438.16 358.05 340.6 364.8 351.11 212.76 460.34 212.76"/><polygon class="cls-5" points="278.46 213.15 278.85 360.65 59.35 349.75 36.52 214.18 278.46 213.15"/><polygon class="cls-2" points="143.67 255.05 153.27 278.92 183.63 279.44 162.61 303.83 169.62 333.66 143.67 313.43 120.06 331.59 126.81 302.53 106.57 280.22 133.03 279.44 143.67 255.05"/><polygon class="cls-1" points="84.78 193.56 91 243.37 190.63 242.85 185.45 190.96 84.78 193.56"/><path class="cls-4" d="m140.3,234.55l-16.09,1.04,5.71-14.53s-9.6-3.89-9.34-11.42,2.08-9.86,10.38-10.38,12.97,5.45,12.45,10.9-7.78,10.38-7.78,10.38l4.67,14.01Z"/></svg>