<svg width="444" height="410" viewBox="0 0 444 410" fill="none" xmlns="http://www.w3.org/2000/svg">
<g clip-path="url(#clip0_254_282)">
<path d="M222 410C99.39 410 0 318.22 0 205C0 91.78 99.39 0 222 0C344.61 0 444 91.78 444 205C444 318.22 344.61 410 222 410Z" fill="#FBFADA"/>
<path d="M222 360.06C136.479 360.06 67.1501 290.637 67.1501 205C67.1501 119.363 136.479 49.9399 222 49.9399C307.521 49.9399 376.85 119.363 376.85 205C376.85 290.637 307.521 360.06 222 360.06Z" fill="url(#paint0_linear_254_282)"/>
<path d="M263.4 140.04C253.62 156.04 237.97 179.38 224.12 192.43C224.94 174.64 220.86 147.06 214.83 131.39C206.19 109.03 190.05 87.48 167.72 71.98C166.42 71.16 166.09 69.86 164.95 69.21C180.92 62.35 198.36 58.11 216.78 57.3C238.95 56.32 260.3 60.24 279.53 67.91C278.71 69.05 278.39 70.52 278.39 72.15C279.37 95.82 276.11 119.16 263.23 139.89L263.39 140.05L263.4 140.04Z" fill="#FFD04E"/>
<path d="M184.02 139.55C194.13 155.71 208.63 180.52 214.34 199.12C198.37 190.14 171.15 180.84 154.03 178.88C129.58 176.27 102.36 180.51 77.9101 193.08C76.6101 193.73 75.1401 193.57 74.1601 194.22C75.1401 176.76 79.2101 159.29 86.8701 142.32C96.0001 122.08 109.2 104.94 125.17 91.3999C125.82 92.5399 126.96 93.6899 128.59 94.3399C150.92 104.62 170.8 118.33 184.01 139.55H184.02Z" fill="#F8B019"/>
<path d="M148 207.61C166.91 206.31 195.27 205.49 214.18 209.08C198.86 218.87 178.32 238.3 168.87 252.33C155.34 272.57 146.54 298.36 146.38 325.78C146.38 327.25 145.56 328.39 145.56 329.53C130.73 320.55 117.2 308.64 105.95 293.95C92.42 276.32 83.46 256.57 78.89 236.33C80.19 236.33 81.6599 235.84 82.9599 234.7C102.19 220.01 123.38 209.08 148 207.44V207.6V207.61Z" fill="#F0A020"/>
<path d="M183.86 272.24C192.99 256.08 207.49 232.09 220.7 218.54C220.7 236.17 225.92 263.42 232.6 278.6C242.22 300.31 259.33 321.04 282.31 335.4C283.61 336.22 284.1 337.52 285.08 338.01C269.43 345.52 252.16 350.41 233.74 352.21C211.57 354.17 190.22 351.39 170.66 344.54C171.31 343.4 171.64 341.93 171.48 340.3C169.52 316.8 171.48 293.62 183.54 272.4L183.87 272.24H183.86Z" fill="#F0A020"/>
<path d="M251.66 274.86C243.84 257.56 232.92 231.12 229.66 212.19C244.17 223.12 269.76 235.69 286.22 239.77C310.02 245.48 337.24 244.67 362.99 235.2C364.46 234.71 365.76 235.2 366.9 234.55C363.64 251.69 357.28 268.5 347.5 284.33C335.76 303.26 320.44 318.61 303 329.87C302.51 328.56 301.53 327.42 300.07 326.61C279.53 313.72 261.77 297.72 251.5 275.03L251.66 274.87V274.86Z" fill="#F0A020"/>
<path d="M297.14 210.22C278.23 208.75 250.03 205.49 231.94 199.12C248.4 191.78 271.71 175.45 283.12 162.89C299.42 144.94 311.81 120.62 315.88 93.5199C316.04 92.0499 317.18 91.0699 317.18 89.9299C330.55 101.03 342.28 114.74 351.25 130.9C362.17 150.32 368.2 171.05 369.67 191.94C368.37 191.94 366.9 191.94 365.43 192.92C344.4 204.67 321.75 212.34 297.13 210.38V210.22H297.14Z" fill="#F8B019"/>
<path d="M176.2 110.5C169.68 113.76 164.95 110.99 156.31 115.89C146.53 121.28 136.75 129.76 131.7 141.19C129.91 145.43 128.77 149.51 128.44 153.1C128.11 157.18 117.03 149.35 114.59 142.49C111.66 134.49 115.89 126.66 118.5 121.92C127.95 104.78 145.88 99.23 150.28 97.93C159.24 95.48 175.54 93.52 178.8 99.89C180.43 103.15 179.45 108.87 176.19 110.5H176.2Z" fill="#F8FBF4"/>
<path d="M222 57.9399C182.78 57.9399 145.9 73.2299 118.17 101.01C90.4301 128.79 75.1601 165.72 75.1601 205C75.1601 244.28 90.4401 281.21 118.17 308.99C145.91 336.76 182.78 352.06 222 352.06C261.22 352.06 298.1 336.77 325.83 308.99C353.57 281.21 368.84 244.28 368.84 205C368.84 165.72 353.56 128.79 325.83 101.01C298.09 73.2399 261.22 57.9399 222 57.9399ZM222 49.9399C307.52 49.9399 376.85 119.36 376.85 205C376.85 290.64 307.52 360.06 222 360.06C136.48 360.06 67.1501 290.64 67.1501 205C67.1501 119.36 136.48 49.9399 222 49.9399Z" fill="#DF8C26"/>
<path d="M303.41 148.39C305.26 170.78 304.33 193.64 303.56 214.91C302.64 242.57 302.94 266.88 302.94 280.63C302.94 283.51 302.94 291.18 297.7 294.54C295.54 295.98 291.99 296.94 284.59 295.02C263.62 289.58 249.9 268 248.97 273.59C247.89 280.95 247.58 286.22 242.19 292.62C239.42 296.14 233.4 296.78 228.93 295.98C217.37 293.9 209.5 286.38 198.71 277.27C183.14 264 180.82 261.92 173.11 255.52C156 241.13 153.84 239.21 144.43 229.94C131.63 217.15 124.23 209.79 125.47 201.16C125.93 197.48 127.78 194.6 147.21 178.93C158 170.29 161.39 167.9 177.43 155.74C177.43 155.74 186.22 149.02 209.65 133.83C215.51 129.99 220.75 126.8 227.69 127.27C233.24 127.75 240.33 129.99 242.95 135.11C246.65 142.31 244.18 153.02 249.43 148.54C252.05 146.3 255.6 142.94 266.39 136.07C271.17 133.03 275.18 130.47 281.04 130.15C282.27 130.15 289.98 129.67 296 134.31C301.86 138.79 303.25 145.5 303.55 148.7L303.4 148.38L303.41 148.39Z" fill="white"/>
<path d="M232.42 298.29C236.75 298.29 241.28 297.02 243.77 293.87C249.02 287.65 249.76 282.41 250.69 275.79C250.71 275.66 250.73 275.53 250.75 275.39C251.84 276.22 253.41 277.63 254.84 278.91C260.98 284.42 271.24 293.63 284.1 296.96C290.78 298.69 295.45 298.45 298.82 296.21C304.95 292.28 304.95 283.82 304.95 280.63C304.95 278.17 304.95 275.38 304.93 272.29C304.88 258.5 304.81 237.67 305.57 214.98L305.65 212.84C306.3 195.09 306.96 176.84 306.08 158.52L306.64 159.69L305.56 148.51C305.26 145.45 303.86 137.79 297.23 132.72C293.14 129.57 287.79 128.01 281.35 128.15H280.96C274.6 128.5 270.33 131.21 265.39 134.35C255.54 140.62 251.6 144.04 249 146.29L248.16 147.01C248.06 147.09 247.97 147.17 247.89 147.23C247.68 146.41 247.49 145.07 247.34 144.02C246.92 141.06 246.41 137.39 244.76 134.18C241.05 126.94 230.91 125.53 227.89 125.27C220.5 124.76 215.01 127.94 208.58 132.15C185.36 147.2 176.32 154.07 176.24 154.14C172.29 157.13 169.1 159.54 166.38 161.59C157.97 167.94 154.13 170.83 145.98 177.35C126.04 193.43 124.07 196.43 123.5 200.89C122.14 210.45 129.94 218.25 142.88 231.18L143.04 231.34C152.46 240.63 154.61 242.55 171.85 257.04C176.98 261.29 179.66 263.59 185.55 268.63C188.49 271.15 192.22 274.34 197.44 278.78C198.47 279.65 199.46 280.49 200.43 281.32C210.02 289.5 217.6 295.95 228.6 297.93C229.82 298.15 231.12 298.26 232.44 298.26L232.42 298.29ZM249.8 270.67C249.48 270.67 249.17 270.72 248.86 270.83C248.28 271.03 247.28 271.62 247 273.27C246.9 273.96 246.81 274.6 246.72 275.22C245.84 281.44 245.21 285.94 240.66 291.33C238.41 294.18 233.19 294.71 229.28 294.01C219.35 292.22 212.13 286.08 203 278.29C202.02 277.46 201.02 276.61 200 275.74C194.79 271.3 191.07 268.12 188.13 265.6C182.23 260.55 179.53 258.25 174.39 253.98C157.28 239.59 155.14 237.68 145.84 228.51L145.69 228.36C133.23 215.9 126.37 209.04 127.45 201.43C127.83 198.39 130.03 195.35 148.47 180.48C156.57 174 160.39 171.11 168.77 164.79C171.49 162.74 174.68 160.33 178.64 157.33C178.73 157.26 187.68 150.46 210.74 135.51C216.73 131.59 221.43 128.86 227.55 129.27C232.67 129.71 238.97 131.72 241.17 136.02C242.51 138.63 242.98 141.93 243.35 144.59C243.84 148.08 244.19 150.6 246.33 151.41C248.28 152.15 250.12 150.58 250.72 150.07L251.58 149.33C254.1 147.15 257.9 143.85 267.45 137.77C272.13 134.79 275.8 132.46 281.1 132.17H281.39C286.9 132.07 291.4 133.32 294.76 135.91C299.05 139.19 300.66 143.88 301.26 146.94L301.39 148.57C303.17 170.09 302.38 191.75 301.62 212.71L301.54 214.85C300.78 237.61 300.85 258.5 300.9 272.31C300.91 275.4 300.92 278.19 300.92 280.64C300.92 283.23 300.92 290.1 296.6 292.87C295.72 293.46 293.13 295.19 285.07 293.1C273.16 290.01 263.72 281.54 257.48 275.94C253.66 272.52 251.62 270.68 249.78 270.68L249.8 270.67Z" fill="#C06228"/>
</g>
<defs>
<linearGradient id="paint0_linear_254_282" x1="223.26" y1="54.6699" x2="220.8" y2="348.14" gradientUnits="userSpaceOnUse">
<stop offset="0.1" stop-color="#FED777"/>
<stop offset="0.9" stop-color="#E8952B"/>
</linearGradient>
<clipPath id="clip0_254_282">
<rect width="444" height="410" fill="white" transform="matrix(-1 0 0 1 444 0)"/>
</clipPath>
</defs>
</svg>
