<svg width="122" height="196" viewBox="0 0 122 196" fill="none" xmlns="http://www.w3.org/2000/svg">
<path d="M13.0056 36.6947C6.671 56.2777 5.61523 56.6338 5.61523 97.5801C5.61523 138.526 5.61523 147.072 13.7094 161.67C22.8594 178.761 45.0305 193.003 67.5536 189.086C94.6516 184.814 104.505 161.314 105.913 157.753C112.952 140.663 114.711 138.526 115.415 100.429C116.119 61.9746 116.471 46.3082 108.728 32.066C100.634 16.3995 81.9824 5.71787 62.9786 5.36182C39.7517 5.36182 18.6364 19.248 13.0056 36.6947Z" fill="white"/>
<path d="M60.1632 195.495C37.6402 195.495 17.5806 180.54 9.13449 164.518C0.688348 148.139 0.688348 136.745 0.336426 97.9354C0.336426 58.7694 1.3922 55.5649 7.02296 38.4742L8.07872 35.2697C14.7652 14.9746 38.696 0.0202881 63.3305 0.376343C84.094 0.376343 104.505 12.4822 113.655 29.9289C121.75 45.2393 121.398 60.1936 121.046 97.2233V101.14C120.342 137.814 118.582 142.442 112.248 157.753L111.192 160.601C108.377 167.366 96.7632 190.51 68.6094 195.139C65.794 195.495 62.9786 195.851 60.5151 195.851L60.1632 195.495ZM17.9325 38.4742L16.8768 42.0348C11.5979 58.4133 10.8941 60.1936 10.8941 97.9354C10.8941 135.677 11.246 146.003 18.2845 159.533C26.0268 174.131 45.3825 187.661 66.4978 184.457C88.6689 180.896 97.8189 163.806 100.986 156.328L102.042 153.48C108.025 139.594 109.432 135.677 109.784 101.14V97.2233C110.488 62.3299 110.488 48.0877 103.802 35.2697C96.4112 21.3836 79.8709 11.414 62.6267 11.414H61.9228C42.2152 11.414 22.8595 23.5199 17.5806 39.1863L17.9325 38.4742Z" fill="#C06228"/>
</svg>
