<svg width="125" height="199" viewBox="0 0 125 199" fill="none" xmlns="http://www.w3.org/2000/svg">
<path d="M14.6722 38.5387C8.19769 58.2598 7.21245 58.5802 7.31802 99.482C7.42358 138.782 7.63471 148.856 15.4111 163.558C24.4543 180.716 46.5871 194.813 69.107 191.111C96.1661 186.661 105.983 163.522 107.496 159.891C114.499 142.876 116.434 140.562 116.927 102.543C117.454 64.0623 117.947 48.6128 110.311 34.0889C102.042 18.3547 83.6394 7.60421 64.7086 7.28383C41.6257 6.92785 20.3725 21.2737 14.6722 38.5387Z" fill="#A25424"/>
<path d="M61.7881 198.836C38.4941 198.836 17.8743 183.351 9.21817 166.904C0.421329 150.28 0.386145 138.533 0.280583 99.5179C0.175021 61.3927 0.94914 57.6193 6.8958 39.678L8.0218 36.2962C14.9537 15.3292 39.3386 -0.120264 64.8494 0.164518C86.3489 0.520496 107.145 12.8373 116.575 30.743C124.809 46.406 124.598 61.7486 124.07 98.8059V102.65C123.542 138.319 121.818 143.908 115.238 159.749L114.041 162.633C111.05 169.788 99.1219 193.389 70.2683 198.124C67.4181 198.586 64.6031 198.8 61.7881 198.8V198.836ZM21.3578 40.7816L20.2318 44.1633C14.9537 60.1467 14.25 62.1758 14.3555 99.4467C14.4611 138.426 14.7074 147.148 21.6041 160.176C29.0287 174.238 47.7835 187.373 67.9811 184.063C89.0935 180.574 98.1015 164.057 101.022 157.115L102.218 154.232C107.919 140.491 109.467 136.824 109.889 102.473L109.96 98.6279C110.452 64.1337 110.628 49.859 104.118 37.4354C97.0107 23.9438 81.1412 14.6884 64.6031 14.4036C64.3568 14.4036 64.0753 14.4036 63.829 14.4036C42.6814 14.4036 25.6859 27.7172 21.3578 40.8172V40.7816Z" fill="white"/>
</svg>
