<svg width="444" height="410" viewBox="0 0 444 410" fill="none" xmlns="http://www.w3.org/2000/svg">
<g clip-path="url(#clip0_152_445)">
<path d="M222 410C344.61 410 444 318.22 444 205C444 91.78 344.61 0 222 0C99.39 0 0 91.78 0 205C0 318.22 99.39 410 222 410Z" fill="#FBFADA"/>
<path d="M222 360.06C307.521 360.06 376.85 290.637 376.85 205C376.85 119.363 307.521 49.9399 222 49.9399C136.479 49.9399 67.15 119.363 67.15 205C67.15 290.637 136.479 360.06 222 360.06Z" fill="url(#paint0_linear_152_445)"/>
<path d="M180.6 140.04C190.38 156.04 206.03 179.38 219.88 192.43C219.06 174.64 223.14 147.06 229.17 131.39C237.81 109.03 253.95 87.48 276.28 71.98C277.58 71.16 277.91 69.86 279.05 69.21C263.08 62.35 245.64 58.11 227.22 57.3C205.05 56.32 183.7 60.24 164.47 67.91C165.29 69.05 165.61 70.52 165.61 72.15C164.63 95.82 167.89 119.16 180.77 139.89L180.61 140.05L180.6 140.04Z" fill="#FFD04E"/>
<path d="M259.98 139.55C249.87 155.71 235.37 180.52 229.66 199.12C245.63 190.14 272.85 180.84 289.97 178.88C314.42 176.27 341.64 180.51 366.09 193.08C367.39 193.73 368.86 193.57 369.84 194.22C368.86 176.76 364.79 159.29 357.13 142.32C348 122.08 334.8 104.94 318.83 91.3999C318.18 92.5399 317.04 93.6899 315.41 94.3399C293.08 104.62 273.2 118.33 259.99 139.55H259.98Z" fill="#F8B019"/>
<path d="M296 207.61C277.09 206.31 248.73 205.49 229.82 209.08C245.14 218.87 265.68 238.3 275.13 252.33C288.66 272.57 297.46 298.36 297.62 325.78C297.62 327.25 298.44 328.39 298.44 329.53C313.27 320.55 326.8 308.64 338.05 293.95C351.58 276.32 360.54 256.57 365.11 236.33C363.81 236.33 362.34 235.84 361.04 234.7C341.81 220.01 320.62 209.08 296 207.44V207.6V207.61Z" fill="#F0A020"/>
<path d="M260.14 272.24C251.01 256.08 236.51 232.09 223.3 218.54C223.3 236.17 218.08 263.42 211.4 278.6C201.78 300.31 184.67 321.04 161.69 335.4C160.39 336.22 159.9 337.52 158.92 338.01C174.57 345.52 191.84 350.41 210.26 352.21C232.43 354.17 253.78 351.39 273.34 344.54C272.69 343.4 272.36 341.93 272.52 340.3C274.48 316.8 272.52 293.62 260.46 272.4L260.13 272.24H260.14Z" fill="#F0A020"/>
<path d="M192.34 274.86C200.16 257.56 211.08 231.12 214.34 212.19C199.83 223.12 174.24 235.69 157.78 239.77C133.98 245.48 106.76 244.67 81.01 235.2C79.54 234.71 78.24 235.2 77.1 234.55C80.36 251.69 86.72 268.5 96.5 284.33C108.24 303.26 123.56 318.61 141 329.87C141.49 328.56 142.47 327.42 143.93 326.61C164.47 313.72 182.23 297.72 192.5 275.03L192.34 274.87V274.86Z" fill="#F0A020"/>
<path d="M146.86 210.22C165.77 208.75 193.97 205.49 212.06 199.12C195.6 191.78 172.29 175.45 160.88 162.89C144.58 144.94 132.19 120.62 128.12 93.5199C127.96 92.0499 126.82 91.0699 126.82 89.9299C113.45 101.03 101.72 114.74 92.75 130.9C81.83 150.32 75.8 171.05 74.33 191.94C75.63 191.94 77.1 191.94 78.57 192.92C99.6 204.67 122.25 212.34 146.87 210.38V210.22H146.86Z" fill="#F8B019"/>
<path d="M267.8 110.5C274.32 113.76 279.05 110.99 287.69 115.89C297.47 121.28 307.25 129.76 312.3 141.19C314.09 145.43 315.23 149.51 315.56 153.1C315.89 157.18 326.97 149.35 329.41 142.49C332.34 134.49 328.11 126.66 325.5 121.92C316.05 104.78 298.12 99.23 293.72 97.93C284.76 95.48 268.46 93.52 265.2 99.89C263.57 103.15 264.55 108.87 267.81 110.5H267.8Z" fill="#F8FBF4"/>
<path d="M222 57.9399C261.22 57.9399 298.1 73.2299 325.83 101.01C353.57 128.79 368.84 165.72 368.84 205C368.84 244.28 353.56 281.21 325.83 308.99C298.09 336.76 261.22 352.06 222 352.06C182.78 352.06 145.9 336.77 118.17 308.99C90.43 281.21 75.16 244.28 75.16 205C75.16 165.72 90.44 128.79 118.17 101.01C145.91 73.2399 182.78 57.9399 222 57.9399ZM222 49.9399C136.48 49.9399 67.15 119.36 67.15 205C67.15 290.64 136.48 360.06 222 360.06C307.52 360.06 376.85 290.64 376.85 205C376.85 119.36 307.52 49.9399 222 49.9399Z" fill="#DF8C26"/>
<path d="M144.68 215.09C141.26 212.48 125.61 203.17 123 185.55C122.02 179.84 122.84 164.82 129.52 157.15C142.23 142.62 163.75 144.91 169.62 145.72C185.92 148.01 199.94 160.57 202.22 162.37C206.46 165.64 209.39 168.74 211.35 171.18C212.65 167.1 214.94 161.39 219.01 155.02C223.08 148.65 229.77 138.21 242.81 132.33C246.72 130.54 262.04 123.52 277.36 130.04C293.5 137.06 301.81 155.66 298.88 171.82C296.27 185.86 286 194.34 282.74 196.79L273.61 204.79C278.83 206.75 286.16 209.69 294.31 214.26C305.07 220.46 308.49 222.75 314.2 228.13C322.51 235.96 324.31 253.26 315.67 265.51C306.38 278.73 289.43 279.38 285.68 279.38C268.89 280.03 258.46 273.67 254.22 271.06L236.45 259.63C234.01 265.51 229.77 274.16 222.43 283.13C215.42 291.78 210.69 297.66 201.89 300.76C186.9 305.98 172.88 298.8 171.25 297.82C155.44 289.33 152.34 273.34 152.02 271.38C148.76 252.61 162.29 239.55 163.59 238.41L175.81 226.66C175.81 226.66 157.23 224.86 144.68 215.07V215.09Z" fill="white" stroke="#C06228" stroke-width="4" stroke-miterlimit="10"/>
<g clip-path="url(#clip1_152_445)">
<path d="M222 410C344.61 410 444 318.22 444 205C444 91.78 344.61 0 222 0C99.39 0 0 91.78 0 205C0 318.22 99.39 410 222 410Z" fill="#FBFADA"/>
<path d="M222 360.06C307.521 360.06 376.85 290.637 376.85 205C376.85 119.363 307.521 49.9399 222 49.9399C136.479 49.9399 67.15 119.363 67.15 205C67.15 290.637 136.479 360.06 222 360.06Z" fill="url(#paint1_linear_152_445)"/>
<path d="M180.6 140.04C190.38 156.04 206.03 179.38 219.88 192.43C219.06 174.64 223.14 147.06 229.17 131.39C237.81 109.03 253.95 87.48 276.28 71.98C277.58 71.16 277.91 69.86 279.05 69.21C263.08 62.35 245.64 58.11 227.22 57.3C205.05 56.32 183.7 60.24 164.47 67.91C165.29 69.05 165.61 70.52 165.61 72.15C164.63 95.82 167.89 119.16 180.77 139.89L180.61 140.05L180.6 140.04Z" fill="#FFD04E"/>
<path d="M259.98 139.55C249.87 155.71 235.37 180.52 229.66 199.12C245.63 190.14 272.85 180.84 289.97 178.88C314.42 176.27 341.64 180.51 366.09 193.08C367.39 193.73 368.86 193.57 369.84 194.22C368.86 176.76 364.79 159.29 357.13 142.32C348 122.08 334.8 104.94 318.83 91.3999C318.18 92.5399 317.04 93.6899 315.41 94.3399C293.08 104.62 273.2 118.33 259.99 139.55H259.98Z" fill="#F8B019"/>
<path d="M296 207.61C277.09 206.31 248.73 205.49 229.82 209.08C245.14 218.87 265.68 238.3 275.13 252.33C288.66 272.57 297.46 298.36 297.62 325.78C297.62 327.25 298.44 328.39 298.44 329.53C313.27 320.55 326.8 308.64 338.05 293.95C351.58 276.32 360.54 256.57 365.11 236.33C363.81 236.33 362.34 235.84 361.04 234.7C341.81 220.01 320.62 209.08 296 207.44V207.6V207.61Z" fill="#F0A020"/>
<path d="M260.14 272.24C251.01 256.08 236.51 232.09 223.3 218.54C223.3 236.17 218.08 263.42 211.4 278.6C201.78 300.31 184.67 321.04 161.69 335.4C160.39 336.22 159.9 337.52 158.92 338.01C174.57 345.52 191.84 350.41 210.26 352.21C232.43 354.17 253.78 351.39 273.34 344.54C272.69 343.4 272.36 341.93 272.52 340.3C274.48 316.8 272.52 293.62 260.46 272.4L260.13 272.24H260.14Z" fill="#F0A020"/>
<path d="M192.34 274.86C200.16 257.56 211.08 231.12 214.34 212.19C199.83 223.12 174.24 235.69 157.78 239.77C133.98 245.48 106.76 244.67 81.01 235.2C79.54 234.71 78.24 235.2 77.1 234.55C80.36 251.69 86.72 268.5 96.5 284.33C108.24 303.26 123.56 318.61 141 329.87C141.49 328.56 142.47 327.42 143.93 326.61C164.47 313.72 182.23 297.72 192.5 275.03L192.34 274.87V274.86Z" fill="#F0A020"/>
<path d="M146.86 210.22C165.77 208.75 193.97 205.49 212.06 199.12C195.6 191.78 172.29 175.45 160.88 162.89C144.58 144.94 132.19 120.62 128.12 93.5199C127.96 92.0499 126.82 91.0699 126.82 89.9299C113.45 101.03 101.72 114.74 92.75 130.9C81.83 150.32 75.8 171.05 74.33 191.94C75.63 191.94 77.1 191.94 78.57 192.92C99.6 204.67 122.25 212.34 146.87 210.38V210.22H146.86Z" fill="#F8B019"/>
<path d="M267.8 110.5C274.32 113.76 279.05 110.99 287.69 115.89C297.47 121.28 307.25 129.76 312.3 141.19C314.09 145.43 315.23 149.51 315.56 153.1C315.89 157.18 326.97 149.35 329.41 142.49C332.34 134.49 328.11 126.66 325.5 121.92C316.05 104.78 298.12 99.23 293.72 97.93C284.76 95.48 268.46 93.52 265.2 99.89C263.57 103.15 264.55 108.87 267.81 110.5H267.8Z" fill="#F8FBF4"/>
<path d="M222 57.9399C261.22 57.9399 298.1 73.2299 325.83 101.01C353.57 128.79 368.84 165.72 368.84 205C368.84 244.28 353.56 281.21 325.83 308.99C298.09 336.76 261.22 352.06 222 352.06C182.78 352.06 145.9 336.77 118.17 308.99C90.43 281.21 75.16 244.28 75.16 205C75.16 165.72 90.44 128.79 118.17 101.01C145.91 73.2399 182.78 57.9399 222 57.9399ZM222 49.9399C136.48 49.9399 67.15 119.36 67.15 205C67.15 290.64 136.48 360.06 222 360.06C307.52 360.06 376.85 290.64 376.85 205C376.85 119.36 307.52 49.9399 222 49.9399Z" fill="#DF8C26"/>
<path d="M144.68 215.09C141.26 212.48 125.61 203.17 123 185.55C122.02 179.84 122.84 164.82 129.52 157.15C142.23 142.62 163.75 144.91 169.62 145.72C185.92 148.01 199.94 160.57 202.22 162.37C206.46 165.64 209.39 168.74 211.35 171.18C212.65 167.1 214.94 161.39 219.01 155.02C223.08 148.65 229.77 138.21 242.81 132.33C246.72 130.54 262.04 123.52 277.36 130.04C293.5 137.06 301.81 155.66 298.88 171.82C296.27 185.86 286 194.34 282.74 196.79L273.61 204.79C278.83 206.75 286.16 209.69 294.31 214.26C305.07 220.46 308.49 222.75 314.2 228.13C322.51 235.96 324.31 253.26 315.67 265.51C306.38 278.73 289.43 279.38 285.68 279.38C268.89 280.03 258.46 273.67 254.22 271.06L236.45 259.63C234.01 265.51 229.77 274.16 222.43 283.13C215.42 291.78 210.69 297.66 201.89 300.76C186.9 305.98 172.88 298.8 171.25 297.82C155.44 289.33 152.34 273.34 152.02 271.38C148.76 252.61 162.29 239.55 163.59 238.41L175.81 226.66C175.81 226.66 157.23 224.86 144.68 215.07V215.09Z" fill="white"/>
<path d="M190.59 304.65C179.12 304.65 170.33 299.63 170.22 299.56C153.63 290.66 150.36 273.64 150.04 271.73C146.45 251.08 162.11 237.07 162.27 236.93L171.48 228.08C165.14 226.96 152.81 223.97 143.46 216.68C143.13 216.43 142.69 216.12 142.16 215.75C137.06 212.14 123.49 202.57 121.02 185.85C119.96 179.67 120.93 163.97 128.01 155.84C140.63 141.43 161.5 142.58 169.89 143.75C180.2 145.19 191.23 150.73 202.7 160.19C203.02 160.46 203.27 160.66 203.45 160.8C206.11 162.85 208.51 165.02 210.59 167.26C212.32 162.69 214.57 158.23 217.31 153.95C221.46 147.47 228.4 136.63 241.97 130.52C258.51 122.93 270.76 125.08 278.13 128.22C294.35 135.27 304.1 154.18 300.83 172.2C298.21 186.32 288.23 195.17 283.99 198.37L277.41 204.13C282.4 206.09 288.53 208.75 295.28 212.53C305.95 218.68 309.68 221.14 315.56 226.69C324.07 234.71 326.87 253.1 317.29 266.67C307.69 280.33 290.66 281.39 285.66 281.39C268.25 282.07 257.28 275.31 253.15 272.77L237.34 262.6C233.82 270.52 229.33 277.85 223.97 284.41L223.86 284.54C216.88 293.16 211.83 299.38 202.54 302.66C198.4 304.1 194.34 304.64 190.57 304.64L190.59 304.65ZM160.61 147.11C151.49 147.11 139.2 149.14 131.03 158.47C125.11 165.26 123.96 179.28 124.98 185.22C127.21 200.29 139.75 209.15 144.48 212.48C145.06 212.89 145.55 213.23 145.9 213.51H145.92C157.87 222.85 175.83 224.68 176.01 224.7L180.34 225.12L164.98 239.88C164.77 240.07 150.78 252.58 153.99 271.07C154.28 272.8 157.21 288.04 172.2 296.09C172.42 296.22 186.25 304.12 201.24 298.9C209.46 296.01 213.96 290.45 220.77 282.04L220.88 281.9C226.49 275.03 231.11 267.29 234.61 258.89L235.53 256.68L255.31 269.4C259.12 271.75 269.32 278.03 285.61 277.41C290.19 277.41 305.55 276.47 314.04 264.39C322.44 252.48 320.15 236.51 312.84 229.62C307.21 224.3 303.82 222.07 293.33 216.02C285.36 211.55 278.24 208.69 272.93 206.69L269.8 205.52L281.56 195.22C285.39 192.34 294.55 184.28 296.93 171.48C299.88 155.24 291.13 138.22 276.58 131.9C269.97 129.08 258.88 127.19 243.66 134.17C231.16 139.8 224.62 150.01 220.72 156.11C217.5 161.14 215 166.42 213.27 171.81L212.13 175.37L209.8 172.45C207.44 169.5 204.48 166.65 201.01 163.97C200.8 163.8 200.52 163.58 200.17 163.28C189.28 154.29 178.92 149.06 169.35 147.71C167.19 147.41 164.14 147.11 160.62 147.11H160.61Z" fill="#C06228"/>
</g>
</g>
<defs>
<linearGradient id="paint0_linear_152_445" x1="220.74" y1="54.6799" x2="223.2" y2="348.14" gradientUnits="userSpaceOnUse">
<stop offset="0.1" stop-color="#FED777"/>
<stop offset="0.9" stop-color="#E8952B"/>
</linearGradient>
<linearGradient id="paint1_linear_152_445" x1="220.74" y1="54.6799" x2="223.2" y2="348.14" gradientUnits="userSpaceOnUse">
<stop offset="0.1" stop-color="#FED777"/>
<stop offset="0.9" stop-color="#E8952B"/>
</linearGradient>
<clipPath id="clip0_152_445">
<rect width="444" height="410" fill="white"/>
</clipPath>
<clipPath id="clip1_152_445">
<rect width="444" height="410" fill="white"/>
</clipPath>
</defs>
</svg>
