<svg width="444" height="410" viewBox="0 0 444 410" fill="none" xmlns="http://www.w3.org/2000/svg">
<g clip-path="url(#clip0_152_444)">
<path d="M222 410C344.61 410 444 318.22 444 205C444 91.78 344.61 0 222 0C99.39 0 0 91.78 0 205C0 318.22 99.39 410 222 410Z" fill="#FBFADA"/>
<path d="M222 360.06C307.521 360.06 376.85 290.637 376.85 205C376.85 119.363 307.521 49.9399 222 49.9399C136.479 49.9399 67.15 119.363 67.15 205C67.15 290.637 136.479 360.06 222 360.06Z" fill="url(#paint0_linear_152_444)"/>
<path d="M180.6 140.04C190.38 156.04 206.03 179.38 219.88 192.43C219.06 174.64 223.14 147.06 229.17 131.39C237.81 109.03 253.95 87.48 276.28 71.98C277.58 71.16 277.91 69.86 279.05 69.21C263.08 62.35 245.64 58.11 227.22 57.3C205.05 56.32 183.7 60.24 164.47 67.91C165.29 69.05 165.61 70.52 165.61 72.15C164.63 95.82 167.89 119.16 180.77 139.89L180.61 140.05L180.6 140.04Z" fill="#FFD04E"/>
<path d="M259.98 139.55C249.87 155.71 235.37 180.52 229.66 199.12C245.63 190.14 272.85 180.84 289.97 178.88C314.42 176.27 341.64 180.51 366.09 193.08C367.39 193.73 368.86 193.57 369.84 194.22C368.86 176.76 364.79 159.29 357.13 142.32C348 122.08 334.8 104.94 318.83 91.3999C318.18 92.5399 317.04 93.6899 315.41 94.3399C293.08 104.62 273.2 118.33 259.99 139.55H259.98Z" fill="#F8B019"/>
<path d="M296 207.61C277.09 206.31 248.73 205.49 229.82 209.08C245.14 218.87 265.68 238.3 275.13 252.33C288.66 272.57 297.46 298.36 297.62 325.78C297.62 327.25 298.44 328.39 298.44 329.53C313.27 320.55 326.8 308.64 338.05 293.95C351.58 276.32 360.54 256.57 365.11 236.33C363.81 236.33 362.34 235.84 361.04 234.7C341.81 220.01 320.62 209.08 296 207.44V207.6V207.61Z" fill="#F0A020"/>
<path d="M260.14 272.24C251.01 256.08 236.51 232.09 223.3 218.54C223.3 236.17 218.08 263.42 211.4 278.6C201.78 300.31 184.67 321.04 161.69 335.4C160.39 336.22 159.9 337.52 158.92 338.01C174.57 345.52 191.84 350.41 210.26 352.21C232.43 354.17 253.78 351.39 273.34 344.54C272.69 343.4 272.36 341.93 272.52 340.3C274.48 316.8 272.52 293.62 260.46 272.4L260.13 272.24H260.14Z" fill="#F0A020"/>
<path d="M192.34 274.86C200.16 257.56 211.08 231.12 214.34 212.19C199.83 223.12 174.24 235.69 157.78 239.77C133.98 245.48 106.76 244.67 81.01 235.2C79.54 234.71 78.24 235.2 77.1 234.55C80.36 251.69 86.72 268.5 96.5 284.33C108.24 303.26 123.56 318.61 141 329.87C141.49 328.56 142.47 327.42 143.93 326.61C164.47 313.72 182.23 297.72 192.5 275.03L192.34 274.87V274.86Z" fill="#F0A020"/>
<path d="M146.86 210.22C165.77 208.75 193.97 205.49 212.06 199.12C195.6 191.78 172.29 175.45 160.88 162.89C144.58 144.94 132.19 120.62 128.12 93.5199C127.96 92.0499 126.82 91.0699 126.82 89.9299C113.45 101.03 101.72 114.74 92.75 130.9C81.83 150.32 75.8 171.05 74.33 191.94C75.63 191.94 77.1 191.94 78.57 192.92C99.6 204.67 122.25 212.34 146.87 210.38V210.22H146.86Z" fill="#F8B019"/>
<path d="M267.8 110.5C274.32 113.76 279.05 110.99 287.69 115.89C297.47 121.28 307.25 129.76 312.3 141.19C314.09 145.43 315.23 149.51 315.56 153.1C315.89 157.18 326.97 149.35 329.41 142.49C332.34 134.49 328.11 126.66 325.5 121.92C316.05 104.78 298.12 99.23 293.72 97.93C284.76 95.48 268.46 93.52 265.2 99.89C263.57 103.15 264.55 108.87 267.81 110.5H267.8Z" fill="#F8FBF4"/>
<path d="M222 57.9399C261.22 57.9399 298.1 73.2299 325.83 101.01C353.57 128.79 368.84 165.72 368.84 205C368.84 244.28 353.56 281.21 325.83 308.99C298.09 336.76 261.22 352.06 222 352.06C182.78 352.06 145.9 336.77 118.17 308.99C90.43 281.21 75.16 244.28 75.16 205C75.16 165.72 90.44 128.79 118.17 101.01C145.91 73.2399 182.78 57.9399 222 57.9399ZM222 49.9399C136.48 49.9399 67.15 119.36 67.15 205C67.15 290.64 136.48 360.06 222 360.06C307.52 360.06 376.85 290.64 376.85 205C376.85 119.36 307.52 49.9399 222 49.9399Z" fill="#DF8C26"/>
<path d="M211.03 240.91C212.41 240.57 212.97 239.38 213.04 239.24C226.17 201.28 239.31 163.33 252.44 125.37C252.83 124.69 253.55 123.68 254.76 123.06C256.55 122.15 258.45 122.56 259.41 122.8C271.25 125.76 284.52 132.51 284.52 132.51C284.52 132.51 289.61 135.1 304.61 145.02C305.43 145.56 307.24 146.8 308 149.04C308.68 151.06 308.2 152.98 307.83 154.04C298.89 170.57 230.36 297.19 224.51 304.1C221.85 307.24 218.99 307.49 218.99 307.49C216.02 307.49 213.62 305.65 212.84 304.98C208.11 300.93 178.48 276.67 137.76 243.21C137.05 242.51 135.85 241.12 135.68 239.21C135.51 237.37 136.38 235.87 137.01 234.92C142.55 226.55 162.3 211.44 170.28 209.26C171.1 209.04 172.84 208.58 174.97 209.01C176.57 209.33 177.77 210.02 178.49 210.52C188.49 220.47 198.48 230.42 208.48 240.36C208.61 240.46 209.66 241.25 211.05 240.9L211.03 240.91Z" fill="white"/>
<path d="M219.07 309.5H218.98C215.4 309.5 212.58 307.41 211.53 306.51C208.2 303.66 192.59 290.84 168.98 271.45C159.32 263.52 148.38 254.53 136.48 244.76L136.35 244.64C134.77 243.09 133.85 241.28 133.68 239.39C133.46 236.96 134.52 235.05 135.33 233.82C141 225.24 161.27 209.65 169.75 207.34C170.56 207.12 172.72 206.53 175.36 207.06C176.86 207.36 178.3 207.97 179.61 208.88L179.89 209.11L209.76 238.83C209.89 238.91 210.2 239.06 210.56 238.97C210.93 238.88 211.14 238.58 211.21 238.46L250.63 124.54L250.72 124.38C251.52 122.99 252.58 121.95 253.87 121.29C256.41 119.99 259.05 120.65 259.92 120.87C271.73 123.83 284.89 130.45 285.45 130.73C285.67 130.84 290.82 133.49 305.74 143.36C306.61 143.94 308.93 145.47 309.92 148.41C310.57 150.34 310.51 152.52 309.74 154.71L309.61 155C291.44 188.59 231.71 298.72 226.05 305.4C222.95 309.07 219.55 309.46 219.17 309.49H219.08L219.07 309.5ZM139.09 241.73C150.95 251.48 161.88 260.45 171.51 268.36C195.15 287.77 210.77 300.59 214.13 303.47C214.68 303.94 216.61 305.45 218.87 305.5C219.22 305.44 221.12 305.02 222.98 302.82C227.28 297.74 270.36 219.11 305.99 153.25C306.42 151.94 306.46 150.74 306.11 149.69C305.56 148.06 304.12 147.11 303.51 146.7C288.99 137.09 283.76 134.38 283.62 134.3C283.08 134.03 270.31 127.6 258.93 124.75C257.97 124.51 256.74 124.31 255.68 124.85C255.13 125.13 254.66 125.59 254.27 126.22L214.91 239.98L214.87 240.06C214.64 240.58 213.7 242.31 211.52 242.85C209.78 243.28 208.16 242.67 207.24 241.94L207.06 241.78L177.21 212.07C176.38 211.53 175.5 211.16 174.58 210.97C172.87 210.63 171.48 211.01 170.81 211.19C163.11 213.29 143.89 228.14 138.68 236.02C138.13 236.86 137.57 237.87 137.68 239.03C137.78 240.16 138.5 241.11 139.11 241.72L139.09 241.73Z" fill="#C06228"/>
</g>
<defs>
<linearGradient id="paint0_linear_152_444" x1="220.74" y1="54.6699" x2="223.2" y2="348.14" gradientUnits="userSpaceOnUse">
<stop offset="0.1" stop-color="#FED777"/>
<stop offset="0.9" stop-color="#E8952B"/>
</linearGradient>
<clipPath id="clip0_152_444">
<rect width="444" height="410" fill="white"/>
</clipPath>
</defs>
</svg>
