<svg width="1016" height="491" viewBox="0 0 1016 491" fill="none" xmlns="http://www.w3.org/2000/svg">
<g clip-path="url(#clip0_157_161)">
<path d="M835.242 0H180.757C80.9279 0 0 81.8718 0 182.866V308.134C0 409.128 80.9279 491 180.757 491H835.242C935.072 491 1016 409.128 1016 308.134V182.866C1016 81.8718 935.072 0 835.242 0Z" fill="#FAF9DB"/>
<mask id="mask0_157_161" style="mask-type:luminance" maskUnits="userSpaceOnUse" x="64" y="60" width="888" height="355">
<path d="M832.744 60.9077H183.256C117.726 60.9077 64.604 114.65 64.604 180.943V294.465C64.604 360.759 117.726 414.5 183.256 414.5H832.744C898.274 414.5 951.396 360.759 951.396 294.465V180.943C951.396 114.65 898.274 60.9077 832.744 60.9077Z" fill="white"/>
</mask>
<g mask="url(#mask0_157_161)">
<path d="M951.396 131.32L64.604 132.815V60.9077H951.396V131.32Z" fill="#FED778"/>
<path d="M951.396 133.741L64.604 135.272V132.815L951.396 131.32V133.741Z" fill="#FED778"/>
<path d="M951.396 136.161L64.604 137.692V135.271L951.396 133.741V136.161Z" fill="#FED677"/>
<path d="M951.396 138.618L64.604 140.113V137.692L951.396 136.162V138.618Z" fill="#FDD576"/>
<path d="M951.396 141.038L64.604 142.569V140.113L951.396 138.618V141.038Z" fill="#FDD475"/>
<path d="M951.396 143.494L64.604 144.989V142.569L951.396 141.038V143.494Z" fill="#FDD474"/>
<path d="M951.396 145.915L64.604 147.446V144.99L951.396 143.495V145.915Z" fill="#FDD373"/>
<path d="M951.396 148.371L64.604 149.866V147.446L951.396 145.915V148.371Z" fill="#FCD272"/>
<path d="M951.396 150.792L64.604 152.287V149.867L951.396 148.372V150.792Z" fill="#FCD171"/>
<path d="M951.396 153.213L64.604 154.743V152.287L951.396 150.792V153.213Z" fill="#FCD070"/>
<path d="M951.396 155.669L64.604 157.164V154.744L951.396 153.213V155.669Z" fill="#FBCF6F"/>
<path d="M951.396 158.09L64.604 159.62V157.164L951.396 155.669V158.09Z" fill="#FBCF6E"/>
<path d="M951.396 160.546L64.604 162.041V159.621L951.396 158.09V160.546Z" fill="#FBCE6D"/>
<path d="M951.396 162.967L64.604 164.462V162.041L951.396 160.546V162.967Z" fill="#FBCD6C"/>
<path d="M951.396 165.387L64.604 166.918V164.461L951.396 162.966V165.387Z" fill="#FACC6B"/>
<path d="M951.396 167.843L64.604 169.339V166.918L951.396 165.387V167.843Z" fill="#FACB6A"/>
<path d="M951.396 170.264L64.604 171.795V169.338L951.396 167.843V170.264Z" fill="#FACA69"/>
<path d="M951.396 172.72L64.604 174.216V171.795L951.396 170.264V172.72Z" fill="#F9CA68"/>
<path d="M951.396 175.141L64.604 176.672V174.215L951.396 172.72V175.141Z" fill="#F9C967"/>
<path d="M951.396 177.562L64.604 179.092V176.672L951.396 175.141V177.562Z" fill="#F9C866"/>
<path d="M951.396 180.018L64.604 181.513V179.092L951.396 177.562V180.018Z" fill="#F9C765"/>
<path d="M951.396 182.439L64.604 183.969V181.513L951.396 180.018V182.439Z" fill="#F8C663"/>
<path d="M951.396 184.895L64.604 186.39V183.969L951.396 182.438V184.895Z" fill="#F8C562"/>
<path d="M951.396 187.315L64.604 188.846V186.39L951.396 184.895V187.315Z" fill="#F8C461"/>
<path d="M951.396 189.736L64.604 191.267V188.846L951.396 187.315V189.736Z" fill="#F7C460"/>
<path d="M951.396 192.192L64.604 193.687V191.267L951.396 189.736V192.192Z" fill="#F7C35F"/>
<path d="M951.396 194.613L64.604 196.144V193.687L951.396 192.192V194.613Z" fill="#F7C25E"/>
<path d="M951.396 197.069L64.604 198.564V196.143L951.396 194.613V197.069Z" fill="#F6C15D"/>
<path d="M951.396 199.49L64.604 201.021V198.564L951.396 197.069V199.49Z" fill="#F6C05C"/>
<path d="M951.396 201.946L64.604 203.441V201.02L951.396 199.49V201.946Z" fill="#F6BF5B"/>
<path d="M951.396 204.367L64.604 205.862V203.441L951.396 201.946V204.367Z" fill="#F6BF5A"/>
<path d="M951.396 206.787L64.604 208.318V205.862L951.396 204.367V206.787Z" fill="#F5BE59"/>
<path d="M951.396 209.244L64.604 210.739V208.318L951.396 206.788V209.244Z" fill="#F5BD58"/>
<path d="M951.396 211.664L64.604 213.195V210.739L951.396 209.244V211.664Z" fill="#F5BC57"/>
<path d="M951.396 214.12L64.604 215.615V213.195L951.396 211.664V214.12Z" fill="#F4BB56"/>
<path d="M951.396 216.541L64.604 218.036V215.616L951.396 214.121V216.541Z" fill="#F4BA55"/>
<path d="M951.396 218.962L64.604 220.492V218.036L951.396 216.541V218.962Z" fill="#F4BA54"/>
<path d="M951.396 221.418L64.604 222.913V220.493L951.396 218.962V221.418Z" fill="#F4B953"/>
<path d="M951.396 223.839L64.604 225.369V222.913L951.396 221.418V223.839Z" fill="#F3B852"/>
<path d="M951.396 226.295L64.604 227.79V225.37L951.396 223.839V226.295Z" fill="#F3B751"/>
<path d="M951.396 228.929L64.604 230.46V227.79L951.396 226.295V228.929Z" fill="#F3B751"/>
<path d="M951.396 231.599L64.604 233.094V230.46L951.396 228.929V231.599Z" fill="#F3B650"/>
<path d="M951.396 234.233L64.604 235.764V233.094L951.396 231.599V234.233Z" fill="#F2B54F"/>
<path d="M951.396 236.903L64.604 238.398V235.764L951.396 234.233V236.903Z" fill="#F2B54E"/>
<path d="M951.396 239.573L64.604 241.068V238.398L951.396 236.903V239.573Z" fill="#F2B44D"/>
<path d="M951.396 242.207L64.604 243.738V241.068L951.396 239.573V242.207Z" fill="#F2B34C"/>
<path d="M951.396 244.877L64.604 246.372V243.738L951.396 242.207V244.877Z" fill="#F1B24B"/>
<path d="M951.396 247.511L64.604 249.042V246.372L951.396 244.877V247.511Z" fill="#F1B14A"/>
<path d="M951.396 250.181L64.604 251.676V249.042L951.396 247.511V250.181Z" fill="#F1B049"/>
<path d="M951.396 252.815L64.604 254.346V251.676L951.396 250.181V252.815Z" fill="#F1B048"/>
<path d="M951.396 255.485L64.604 257.016V254.346L951.396 252.815V255.485Z" fill="#F0AF47"/>
<path d="M951.396 258.155L64.604 259.65V257.016L951.396 255.485V258.155Z" fill="#F0AE46"/>
<path d="M951.396 260.789L64.604 262.32V259.65L951.396 258.155V260.789Z" fill="#F0AD45"/>
<path d="M951.396 263.459L64.604 264.954V262.32L951.396 260.789V263.459Z" fill="#F0AC44"/>
<path d="M951.396 266.093L64.604 267.624V264.954L951.396 263.459V266.093Z" fill="#EFAB43"/>
<path d="M951.396 268.763L64.604 270.258V267.624L951.396 266.093V268.763Z" fill="#EFAB42"/>
<path d="M951.396 271.433L64.604 272.928V270.258L951.396 268.763V271.433Z" fill="#EFAA40"/>
<path d="M951.396 274.067L64.604 275.598V272.928L951.396 271.433V274.067Z" fill="#EEA93F"/>
<path d="M951.396 276.737L64.604 278.232V275.598L951.396 274.067V276.737Z" fill="#EEA83E"/>
<path d="M951.396 279.371L64.604 280.902V278.232L951.396 276.737V279.371Z" fill="#EEA73D"/>
<path d="M951.396 282.041L64.604 283.536V280.902L951.396 279.371V282.041Z" fill="#EEA63C"/>
<path d="M951.396 284.675L64.604 286.206V283.536L951.396 282.041V284.675Z" fill="#EDA63B"/>
<path d="M951.396 287.345L64.604 288.876V286.206L951.396 284.675V287.345Z" fill="#EDA53A"/>
<path d="M951.396 290.015L64.604 291.51V288.876L951.396 287.345V290.015Z" fill="#EDA439"/>
<path d="M951.396 292.649L64.604 294.18V291.51L951.396 290.015V292.649Z" fill="#EDA338"/>
<path d="M951.396 295.319L64.604 296.814V294.18L951.396 292.649V295.319Z" fill="#ECA237"/>
<path d="M951.396 297.953L64.604 299.484V296.814L951.396 295.319V297.953Z" fill="#ECA136"/>
<path d="M951.396 300.623L64.604 302.154V299.484L951.396 297.953V300.623Z" fill="#ECA135"/>
<path d="M951.396 303.293L64.604 304.788V302.154L951.396 300.623V303.293Z" fill="#ECA034"/>
<path d="M951.396 305.927L64.604 307.458V304.788L951.396 303.293V305.927Z" fill="#EB9F33"/>
<path d="M951.396 308.597L64.604 310.092V307.458L951.396 305.927V308.597Z" fill="#EB9E32"/>
<path d="M951.396 313.189L64.604 314.72V310.092L951.396 308.597V313.189Z" fill="#EB9E32"/>
<path d="M951.396 317.781L64.604 319.312V314.72L951.396 313.189V317.781Z" fill="#EB9D31"/>
<path d="M951.396 322.409L64.604 323.904V319.312L951.396 317.781V322.409Z" fill="#EB9C30"/>
<path d="M951.396 327.001L64.604 328.532V323.904L951.396 322.409V327.001Z" fill="#EA9B2F"/>
<path d="M951.396 331.629L64.604 333.124V328.532L951.396 327.001V331.629Z" fill="#EA9A2E"/>
<path d="M951.396 336.221L64.604 337.716V333.124L951.396 331.629V336.221Z" fill="#EA9A2D"/>
<path d="M951.396 340.813L64.604 342.344V337.716L951.396 336.221V340.813Z" fill="#EA992B"/>
<path d="M951.396 345.441L64.604 346.936V342.344L951.396 340.813V345.441Z" fill="#EA982A"/>
<path d="M951.396 350.033L64.604 351.528V346.936L951.396 345.44V350.033Z" fill="#E99729"/>
<path d="M951.396 354.625L64.604 356.156V351.528L951.396 350.033V354.625Z" fill="#E99628"/>
<path d="M951.396 359.253L64.604 360.748V356.156L951.396 354.625V359.253Z" fill="#E99527"/>
<path d="M64.604 360.748L951.396 359.252V414.5H64.604V360.748Z" fill="#E99527"/>
</g>
<path d="M832.744 425.18H183.256C112.001 425.18 54.0479 366.55 54.0479 294.465V180.944C54.0479 108.858 112.001 50.2285 183.256 50.2285H832.744C903.999 50.2285 961.952 108.858 961.952 180.944V294.465C961.952 366.55 903.999 425.18 832.744 425.18ZM183.256 71.5872C123.648 71.5872 75.1603 120.641 75.1603 180.944V294.465C75.1603 354.767 123.648 403.821 183.256 403.821H832.744C892.352 403.821 940.84 354.767 940.84 294.465V180.944C940.84 120.641 892.352 71.5872 832.744 71.5872H183.256Z" fill="#DE8C26"/>
<path d="M673.064 388.158C609.621 351.635 554.905 304.752 497.549 261.572C499.661 307.458 506.839 334.761 533.37 373.242C540.971 384.278 543.469 388.692 568.417 403.892H704.521C698.258 400.688 681.826 393.213 673.064 388.158Z" fill="#F0A022"/>
<path d="M349.516 393.533C349.094 396.132 347.299 402.29 346.455 403.892L440.616 402.575C434.634 385.31 433.649 371.107 435.092 352.276C436.077 339.14 439.737 323.797 444.311 311.409C448.78 299.306 472.672 270.508 480.096 258.013C426.717 276.88 359.439 334.512 349.551 393.533H349.516Z" fill="#F0A022"/>
<path d="M492.975 237.686C490.512 163.536 576.123 107.185 640.762 71.6582H402.755C414.718 103.945 426.647 133.563 443.326 165.138C456.732 190.484 467.359 213.764 493.01 237.686H492.975Z" fill="#FFD04E"/>
<path d="M401.418 261.608C407.223 259.899 462.432 244.699 469.857 242.563C420.243 240.89 317.39 226.473 274.954 209.493C217.141 186.354 172.418 154.316 147.646 93.2307C147.365 92.5543 142.403 80.7003 142.192 80.0239C113.057 89.3149 75.4066 130.822 74.7732 173.575V206.218C84.9423 222.13 107.709 236.156 111.72 237.936C149.757 254.702 168.231 259.828 208.52 269.119C274.145 284.284 335.617 276.346 401.418 261.608Z" fill="#F6B01A"/>
<path d="M790.168 255.414C834.961 246.051 879.543 234.981 921.909 217.929C926.378 216.149 933.451 213.907 941.192 211.166V171.617C939.186 129.291 907.13 92.5895 868.354 77.8521C838.656 127.297 792.912 167.202 792.912 167.202C734.994 221.845 566.974 245.055 511.765 248.045C589.424 268.656 711.876 271.824 790.203 255.414H790.168Z" fill="#F6B01A"/>
</g>
<defs>
<clipPath id="clip0_157_161">
<rect width="1016" height="491" fill="white"/>
</clipPath>
</defs>
</svg>
