<svg width="444" height="410" viewBox="0 0 444 410" fill="none" xmlns="http://www.w3.org/2000/svg">
<g clip-path="url(#clip0_152_435)">
<path d="M222 410C344.61 410 444 318.22 444 205C444 91.78 344.61 0 222 0C99.39 0 0 91.78 0 205C0 318.22 99.39 410 222 410Z" fill="#FBFADA"/>
<path d="M222 360.06C307.521 360.06 376.85 290.637 376.85 205C376.85 119.363 307.521 49.9399 222 49.9399C136.479 49.9399 67.15 119.363 67.15 205C67.15 290.637 136.479 360.06 222 360.06Z" fill="url(#paint0_linear_152_435)"/>
<path d="M180.6 140.04C190.38 156.04 206.03 179.38 219.88 192.43C219.06 174.64 223.14 147.06 229.17 131.39C237.81 109.03 253.95 87.48 276.28 71.98C277.58 71.16 277.91 69.86 279.05 69.21C263.08 62.35 245.64 58.11 227.22 57.3C205.05 56.32 183.7 60.24 164.47 67.91C165.29 69.05 165.61 70.52 165.61 72.15C164.63 95.82 167.89 119.16 180.77 139.89L180.61 140.05L180.6 140.04Z" fill="#FFD04E"/>
<path d="M259.98 139.55C249.87 155.71 235.37 180.52 229.66 199.12C245.63 190.14 272.85 180.84 289.97 178.88C314.42 176.27 341.64 180.51 366.09 193.08C367.39 193.73 368.86 193.57 369.84 194.22C368.86 176.76 364.79 159.29 357.13 142.32C348 122.08 334.8 104.94 318.83 91.3999C318.18 92.5399 317.04 93.6899 315.41 94.3399C293.08 104.62 273.2 118.33 259.99 139.55H259.98Z" fill="#F8B019"/>
<path d="M296 207.61C277.09 206.31 248.73 205.49 229.82 209.08C245.14 218.87 265.68 238.3 275.13 252.33C288.66 272.57 297.46 298.36 297.62 325.78C297.62 327.25 298.44 328.39 298.44 329.53C313.27 320.55 326.8 308.64 338.05 293.95C351.58 276.32 360.54 256.57 365.11 236.33C363.81 236.33 362.34 235.84 361.04 234.7C341.81 220.01 320.62 209.08 296 207.44V207.6V207.61Z" fill="#F0A020"/>
<path d="M260.14 272.24C251.01 256.08 236.51 232.09 223.3 218.54C223.3 236.17 218.08 263.42 211.4 278.6C201.78 300.31 184.67 321.04 161.69 335.4C160.39 336.22 159.9 337.52 158.92 338.01C174.57 345.52 191.84 350.41 210.26 352.21C232.43 354.17 253.78 351.39 273.34 344.54C272.69 343.4 272.36 341.93 272.52 340.3C274.48 316.8 272.52 293.62 260.46 272.4L260.13 272.24H260.14Z" fill="#F0A020"/>
<path d="M192.34 274.86C200.16 257.56 211.08 231.12 214.34 212.19C199.83 223.12 174.24 235.69 157.78 239.77C133.98 245.48 106.76 244.67 81.01 235.2C79.54 234.71 78.24 235.2 77.1 234.55C80.36 251.69 86.72 268.5 96.5 284.33C108.24 303.26 123.56 318.61 141 329.87C141.49 328.56 142.47 327.42 143.93 326.61C164.47 313.72 182.23 297.72 192.5 275.03L192.34 274.87V274.86Z" fill="#F0A020"/>
<path d="M146.86 210.22C165.77 208.75 193.97 205.49 212.06 199.12C195.6 191.78 172.29 175.45 160.88 162.89C144.58 144.94 132.19 120.62 128.12 93.5199C127.96 92.0499 126.82 91.0699 126.82 89.9299C113.45 101.03 101.72 114.74 92.75 130.9C81.83 150.32 75.8 171.05 74.33 191.94C75.63 191.94 77.1 191.94 78.57 192.92C99.6 204.67 122.25 212.34 146.87 210.38V210.22H146.86Z" fill="#F8B019"/>
<path d="M267.8 110.5C274.32 113.76 279.05 110.99 287.69 115.89C297.47 121.28 307.25 129.76 312.3 141.19C314.09 145.43 315.23 149.51 315.56 153.1C315.89 157.18 326.97 149.35 329.41 142.49C332.34 134.49 328.11 126.66 325.5 121.92C316.05 104.78 298.12 99.23 293.72 97.93C284.76 95.48 268.46 93.52 265.2 99.89C263.57 103.15 264.55 108.87 267.81 110.5H267.8Z" fill="#F8FBF4"/>
<path d="M222 57.9399C261.22 57.9399 298.1 73.2299 325.83 101.01C353.57 128.79 368.84 165.72 368.84 205C368.84 244.28 353.56 281.21 325.83 308.99C298.09 336.76 261.22 352.06 222 352.06C182.78 352.06 145.9 336.77 118.17 308.99C90.43 281.21 75.16 244.28 75.16 205C75.16 165.72 90.44 128.79 118.17 101.01C145.91 73.2399 182.78 57.9399 222 57.9399ZM222 49.9399C136.48 49.9399 67.15 119.36 67.15 205C67.15 290.64 136.48 360.06 222 360.06C307.52 360.06 376.85 290.64 376.85 205C376.85 119.36 307.52 49.9399 222 49.9399Z" fill="#DF8C26"/>
<path d="M193 168.85C191.58 168.85 190.22 168.57 188.98 168.02C183.8 165.73 182.79 159.81 182.63 158.51L178.31 144.71L158.88 145.79C158.22 145.87 157.56 145.91 156.91 145.91C150.9 145.91 146.58 142.38 145.9 136.92C145.66 135 145.92 133.11 146.66 131.45C149.21 125.74 156.14 125.06 156.43 125.04L175.13 124L171.37 109.14L171.35 109.02C170.49 102.11 174.15 96.7301 180.24 95.9401C180.72 95.8801 181.2 95.8401 181.68 95.8401C183.1 95.8401 184.46 96.1201 185.7 96.6701C190.97 99.0001 191.93 105.07 192.06 106.25L195.87 121.32L212.71 117.58C213.13 117.48 214.07 117.3 215.28 117.3C217.02 117.3 219.58 117.68 221.93 119.49C224.58 121.53 225.51 124.25 225.84 125.68C226.13 127.25 226.22 129.52 225.18 131.86C223.59 135.44 219.9 137.88 215.53 138.26L199.05 141.92L203.3 155.48L203.32 155.66C204.18 162.57 200.52 167.95 194.43 168.74C193.95 168.8 193.46 168.83 192.99 168.83L193 168.85Z" fill="white"/>
<path d="M181.69 97.8401C182.61 97.8401 183.74 97.9901 184.91 98.5001C189.51 100.54 190.08 106.31 190.11 106.6L194.43 123.69L213.17 119.53C213.39 119.48 214.2 119.3 215.31 119.3C216.81 119.3 218.87 119.63 220.74 121.08C223.09 122.89 223.75 125.36 223.92 126.13C224.1 127.11 224.29 129.03 223.38 131.06C222.05 134.04 218.91 136.02 215.26 136.3L196.52 140.46L201.37 155.93C202.04 161.32 199.6 166.08 194.21 166.78C193.88 166.82 193.48 166.86 193.02 166.86C192.1 166.86 190.97 166.71 189.8 166.2C185.2 164.16 184.63 158.39 184.6 158.1L179.75 142.63L158.7 143.8C158.1 143.88 157.5 143.92 156.91 143.92C152.29 143.92 148.48 141.47 147.89 136.69C147.76 135.69 147.72 134.03 148.49 132.28C150.55 127.67 156.32 127.07 156.61 127.04L177.66 125.87L173.34 108.78C172.67 103.39 175.11 98.6301 180.5 97.9301C180.83 97.8901 181.23 97.8501 181.68 97.8501M181.69 93.8401C181.13 93.8401 180.55 93.8801 179.99 93.9501C172.74 94.8901 168.37 101.18 169.38 109.26L169.41 109.51L169.47 109.75L172.6 122.14L156.39 123.04H156.33H156.27C155.41 123.11 147.82 123.96 144.84 130.63C143.95 132.63 143.63 134.89 143.92 137.17C144.72 143.59 149.94 147.9 156.91 147.9C157.61 147.9 158.33 147.86 159.05 147.77L176.86 146.78L180.66 158.92C180.92 160.87 182.22 167.21 188.17 169.84C189.67 170.51 191.3 170.84 193 170.84C193.56 170.84 194.14 170.8 194.71 170.73C201.96 169.79 206.33 163.5 205.32 155.42L205.28 155.06L205.17 154.72L201.63 143.41L215.86 140.25C220.89 139.77 225.15 136.89 227.02 132.68C228.01 130.46 228.29 127.94 227.84 125.42L227.82 125.33L227.8 125.24C227.42 123.54 226.3 120.33 223.16 117.9C220.95 116.19 218.23 115.29 215.29 115.29C213.9 115.29 212.81 115.5 212.26 115.62L197.34 118.93L194.04 105.87C193.82 104.08 192.6 97.5101 186.51 94.8201C185.01 94.1501 183.38 93.8201 181.68 93.8201L181.69 93.8401Z" fill="#C06228"/>
<path d="M204.97 325L184.24 306.99C191.36 298.8 199.62 292.3 208.8 287.69C214.31 284.92 219.79 283 225.55 281.82L231.06 308.72C227.7 309.41 224.46 310.55 221.14 312.22C215.17 315.22 209.74 319.52 204.98 325H204.97ZM247.38 307.38L245.63 279.97C250.22 279.68 253.88 279.06 257.94 276.91C262.2 274.65 266.57 270.9 269.91 266.62L291.54 283.54C285.82 290.85 278.46 297.1 270.81 301.16C261.92 305.88 253.98 306.94 247.38 307.36V307.38ZM302.31 262.47L275.78 255.37C276.25 253.61 276.49 251.88 276.49 250.23C276.49 249.11 276.38 248.01 276.16 246.94C274.97 241.18 270.77 236.91 267.45 234.34L284.26 212.62C294.28 220.37 300.78 230.32 303.06 241.4C303.65 244.28 303.95 247.25 303.95 250.23C303.95 254.27 303.4 258.39 302.31 262.47ZM192.46 244.29C178.54 244.29 166.95 241.06 158.01 234.69L173.94 212.32C178.08 215.27 184.48 216.83 192.46 216.83C195.43 216.83 197.81 216.61 199.23 216.48C200.38 216.37 201.49 216.23 202.55 216.05L207.15 243.12C205.4 243.42 203.58 243.65 201.75 243.82C200.12 243.97 196.71 244.28 192.47 244.28L192.46 244.29ZM228.71 235.28L215.15 211.4C216.53 210.62 217.87 209.79 219.29 208.92C226.32 204.61 235.08 199.21 248.86 199.6C253.69 199.74 258.64 200.56 263.58 202.04L255.71 228.35C253.1 227.57 250.46 227.12 248.08 227.05C247.87 227.05 247.65 227.05 247.43 227.05C242.47 227.05 239.63 228.67 233.66 232.33C232.1 233.28 230.5 234.27 228.71 235.28ZM142.37 213.11C140.82 208.29 140.04 203.09 140.04 197.67C140.04 186.18 143.5 174.29 150.04 163.29L173.65 177.32C169.69 183.98 167.51 191.21 167.51 197.67C167.51 200.24 167.85 202.61 168.53 204.72L142.38 213.11H142.37Z" fill="white"/>
<path d="M205.17 327.82L181.42 307.19L182.73 305.68C190.02 297.29 198.48 290.64 207.9 285.9C213.57 283.05 219.21 281.07 225.15 279.86L227.11 279.46L233.42 310.28L231.46 310.68C228.28 311.33 225.2 312.42 222.04 314.01C216.31 316.89 211.07 321.03 206.49 326.31L205.18 327.82H205.17ZM187.07 306.81L204.79 322.2C209.39 317.23 214.58 313.28 220.23 310.44C223.07 309.01 225.85 307.95 228.7 307.22L223.99 284.22C219.11 285.38 214.42 287.11 209.69 289.49C201.31 293.7 193.71 299.53 187.07 306.82V306.81ZM245.51 309.51L243.51 278.11L245.51 277.98C249.84 277.7 253.27 277.14 257.01 275.15C261.03 273.01 265.17 269.46 268.34 265.4L269.57 263.82L294.35 283.21L293.12 284.79C287.23 292.31 279.65 298.76 271.76 302.95C262.54 307.85 254.33 308.95 247.52 309.38L245.52 309.51H245.51ZM247.75 281.82L249.24 305.24C255.21 304.73 262.18 303.49 269.86 299.41C276.72 295.77 283.34 290.3 288.69 283.88L270.2 269.41C266.89 273.25 262.84 276.58 258.86 278.69C255.11 280.68 251.71 281.45 247.74 281.82H247.75ZM303.73 264.92L273.34 256.79L273.86 254.86C274.29 253.26 274.5 251.71 274.5 250.24C274.5 249.26 274.4 248.29 274.21 247.35C273.15 242.19 269.29 238.29 266.24 235.93L264.66 234.71L283.91 209.83L285.49 211.05C295.89 219.1 302.64 229.46 305.02 241.01C305.64 244.02 305.96 247.13 305.96 250.24C305.96 254.46 305.38 258.75 304.25 263L303.73 264.93V264.92ZM278.15 253.94L300.85 260.02C301.58 256.75 301.95 253.47 301.95 250.24C301.95 247.4 301.66 244.57 301.1 241.82C299.04 231.8 293.35 222.73 284.6 215.47L270.23 234.04C273.47 236.87 277 241.07 278.12 246.55C278.37 247.75 278.49 248.99 278.49 250.24C278.49 251.49 278.38 252.68 278.15 253.95V253.94ZM192.46 246.29C178.12 246.29 166.14 242.93 156.85 236.32L155.22 235.16L173.47 209.53L175.1 210.69C178.9 213.4 184.9 214.83 192.46 214.83C195.34 214.83 197.66 214.62 199.04 214.49C200.14 214.39 201.21 214.25 202.21 214.08L204.18 213.75L209.45 244.77L207.48 245.1C205.68 245.41 203.81 245.65 201.93 245.82C200.26 245.97 196.79 246.29 192.46 246.29ZM160.83 234.18C169.19 239.56 179.82 242.29 192.46 242.29C196.6 242.29 199.95 241.98 201.56 241.83C202.67 241.73 203.76 241.6 204.84 241.45L200.91 218.3C200.42 218.36 199.92 218.41 199.42 218.46C197.97 218.59 195.54 218.82 192.47 218.82C185.07 218.82 178.91 217.51 174.48 215.01L160.83 234.17V234.18ZM227.96 238L212.42 210.64L214.16 209.65C215.52 208.88 216.84 208.07 218.24 207.21C225.54 202.73 234.57 197.16 248.91 197.59C253.91 197.73 259.03 198.58 264.15 200.11L266.07 200.68L257.05 230.82L255.13 230.25C252.69 229.52 250.23 229.1 248.01 229.03C247.83 229.03 247.62 229.03 247.42 229.03C243 229.03 240.48 230.47 234.69 234.02C233.13 234.98 231.51 235.98 229.69 237.01L227.95 238H227.96ZM217.86 212.13L229.45 232.54C230.55 231.89 231.59 231.25 232.61 230.62C238.75 226.85 241.94 225.04 247.43 225.04C247.67 225.04 247.91 225.04 248.13 225.04C250.1 225.1 252.22 225.39 254.36 225.9L261.09 203.4C256.95 202.31 252.83 201.7 248.81 201.58C235.65 201.2 227.19 206.41 220.38 210.58C219.55 211.09 218.71 211.61 217.87 212.11L217.86 212.13ZM141.08 215.63L140.47 213.72C138.86 208.7 138.04 203.3 138.04 197.67C138.04 185.82 141.59 173.58 148.32 162.27L149.34 160.55L176.38 176.63L175.36 178.35C171.58 184.71 169.5 191.57 169.5 197.67C169.5 200.03 169.81 202.2 170.42 204.11L171.03 206.01L141.07 215.62L141.08 215.63ZM150.76 166.06C145.05 176.26 142.04 187.15 142.04 197.68C142.04 202.18 142.6 206.51 143.71 210.59L166.1 203.41C165.7 201.62 165.51 199.7 165.51 197.68C165.51 191.43 167.43 184.53 170.95 178.05L150.77 166.05L150.76 166.06Z" fill="#C06228"/>
</g>
<defs>
<linearGradient id="paint0_linear_152_435" x1="220.74" y1="54.6699" x2="223.2" y2="348.14" gradientUnits="userSpaceOnUse">
<stop offset="0.1" stop-color="#FED777"/>
<stop offset="0.9" stop-color="#E8952B"/>
</linearGradient>
<clipPath id="clip0_152_435">
<rect width="444" height="410" fill="white"/>
</clipPath>
</defs>
</svg>
