<svg width="444" height="410" viewBox="0 0 444 410" fill="none" xmlns="http://www.w3.org/2000/svg">
<g clip-path="url(#clip0_152_443)">
<path d="M222 410C344.61 410 444 318.22 444 205C444 91.78 344.61 0 222 0C99.39 0 0 91.78 0 205C0 318.22 99.39 410 222 410Z" fill="#FBFADA"/>
<path d="M222 360.06C307.521 360.06 376.85 290.637 376.85 205C376.85 119.363 307.521 49.9399 222 49.9399C136.479 49.9399 67.15 119.363 67.15 205C67.15 290.637 136.479 360.06 222 360.06Z" fill="url(#paint0_linear_152_443)"/>
<path d="M180.6 140.04C190.38 156.04 206.03 179.38 219.88 192.43C219.06 174.64 223.14 147.06 229.17 131.39C237.81 109.03 253.95 87.48 276.28 71.98C277.58 71.16 277.91 69.86 279.05 69.21C263.08 62.35 245.64 58.11 227.22 57.3C205.05 56.32 183.7 60.24 164.47 67.91C165.29 69.05 165.61 70.52 165.61 72.15C164.63 95.82 167.89 119.16 180.77 139.89L180.61 140.05L180.6 140.04Z" fill="#FFD04E"/>
<path d="M259.98 139.55C249.87 155.71 235.37 180.52 229.66 199.12C245.63 190.14 272.85 180.84 289.97 178.88C314.42 176.27 341.64 180.51 366.09 193.08C367.39 193.73 368.86 193.57 369.84 194.22C368.86 176.76 364.79 159.29 357.13 142.32C348 122.08 334.8 104.94 318.83 91.3999C318.18 92.5399 317.04 93.6899 315.41 94.3399C293.08 104.62 273.2 118.33 259.99 139.55H259.98Z" fill="#F8B019"/>
<path d="M296 207.61C277.09 206.31 248.73 205.49 229.82 209.08C245.14 218.87 265.68 238.3 275.13 252.33C288.66 272.57 297.46 298.36 297.62 325.78C297.62 327.25 298.44 328.39 298.44 329.53C313.27 320.55 326.8 308.64 338.05 293.95C351.58 276.32 360.54 256.57 365.11 236.33C363.81 236.33 362.34 235.84 361.04 234.7C341.81 220.01 320.62 209.08 296 207.44V207.6V207.61Z" fill="#F0A020"/>
<path d="M260.14 272.24C251.01 256.08 236.51 232.09 223.3 218.54C223.3 236.17 218.08 263.42 211.4 278.6C201.78 300.31 184.67 321.04 161.69 335.4C160.39 336.22 159.9 337.52 158.92 338.01C174.57 345.52 191.84 350.41 210.26 352.21C232.43 354.17 253.78 351.39 273.34 344.54C272.69 343.4 272.36 341.93 272.52 340.3C274.48 316.8 272.52 293.62 260.46 272.4L260.13 272.24H260.14Z" fill="#F0A020"/>
<path d="M192.34 274.86C200.16 257.56 211.08 231.12 214.34 212.19C199.83 223.12 174.24 235.69 157.78 239.77C133.98 245.48 106.76 244.67 81.01 235.2C79.54 234.71 78.24 235.2 77.1 234.55C80.36 251.69 86.72 268.5 96.5 284.33C108.24 303.26 123.56 318.61 141 329.87C141.49 328.56 142.47 327.42 143.93 326.61C164.47 313.72 182.23 297.72 192.5 275.03L192.34 274.87V274.86Z" fill="#F0A020"/>
<path d="M146.86 210.22C165.77 208.75 193.97 205.49 212.06 199.12C195.6 191.78 172.29 175.45 160.88 162.89C144.58 144.94 132.19 120.62 128.12 93.5199C127.96 92.0499 126.82 91.0699 126.82 89.9299C113.45 101.03 101.72 114.74 92.75 130.9C81.83 150.32 75.8 171.05 74.33 191.94C75.63 191.94 77.1 191.94 78.57 192.92C99.6 204.67 122.25 212.34 146.87 210.38V210.22H146.86Z" fill="#F8B019"/>
<path d="M267.8 110.5C274.32 113.76 279.05 110.99 287.69 115.89C297.47 121.28 307.25 129.76 312.3 141.19C314.09 145.43 315.23 149.51 315.56 153.1C315.89 157.18 326.97 149.35 329.41 142.49C332.34 134.49 328.11 126.66 325.5 121.92C316.05 104.78 298.12 99.23 293.72 97.93C284.76 95.48 268.46 93.52 265.2 99.89C263.57 103.15 264.55 108.87 267.81 110.5H267.8Z" fill="#F8FBF4"/>
<path d="M222 57.9399C261.22 57.9399 298.1 73.2299 325.83 101.01C353.57 128.79 368.84 165.72 368.84 205C368.84 244.28 353.56 281.21 325.83 308.99C298.09 336.76 261.22 352.06 222 352.06C182.78 352.06 145.9 336.77 118.17 308.99C90.43 281.21 75.16 244.28 75.16 205C75.16 165.72 90.44 128.79 118.17 101.01C145.91 73.2399 182.78 57.9399 222 57.9399ZM222 49.9399C136.48 49.9399 67.15 119.36 67.15 205C67.15 290.64 136.48 360.06 222 360.06C307.52 360.06 376.85 290.64 376.85 205C376.85 119.36 307.52 49.9399 222 49.9399Z" fill="#DF8C26"/>
<path d="M140.59 148.39C138.74 170.78 139.67 193.64 140.44 214.91C141.36 242.57 141.06 266.88 141.06 280.63C141.06 283.51 141.06 291.18 146.3 294.54C148.46 295.98 152.01 296.94 159.41 295.02C180.38 289.58 194.1 268 195.03 273.59C196.11 280.95 196.42 286.22 201.81 292.62C204.58 296.14 210.6 296.78 215.07 295.98C226.63 293.9 234.5 286.38 245.29 277.27C260.86 264 263.18 261.92 270.89 255.52C288 241.13 290.16 239.21 299.57 229.94C312.37 217.15 319.77 209.79 318.53 201.16C318.07 197.48 316.22 194.6 296.79 178.93C286 170.29 282.61 167.9 266.57 155.74C266.57 155.74 257.78 149.02 234.35 133.83C228.49 129.99 223.25 126.8 216.31 127.27C210.76 127.75 203.67 129.99 201.05 135.11C197.35 142.31 199.82 153.02 194.57 148.54C191.95 146.3 188.4 142.94 177.61 136.07C172.83 133.03 168.82 130.47 162.96 130.15C161.73 130.15 154.02 129.67 148 134.31C142.14 138.79 140.75 145.5 140.45 148.7L140.6 148.38L140.59 148.39Z" fill="white"/>
<path d="M211.58 298.29C207.25 298.29 202.72 297.02 200.23 293.87C194.98 287.65 194.24 282.41 193.31 275.79C193.29 275.66 193.27 275.53 193.25 275.39C192.16 276.22 190.59 277.63 189.16 278.91C183.02 284.42 172.76 293.63 159.9 296.96C153.22 298.69 148.55 298.45 145.18 296.21C139.05 292.28 139.05 283.82 139.05 280.63C139.05 278.17 139.05 275.38 139.07 272.29C139.12 258.5 139.19 237.67 138.43 214.98L138.35 212.84C137.7 195.09 137.04 176.84 137.92 158.52L137.36 159.69L138.44 148.51C138.74 145.45 140.14 137.79 146.77 132.72C150.86 129.57 156.21 128.01 162.65 128.15H163.04C169.4 128.5 173.67 131.21 178.61 134.35C188.46 140.62 192.4 144.04 195 146.29L195.84 147.01C195.94 147.09 196.03 147.17 196.11 147.23C196.32 146.41 196.51 145.07 196.66 144.02C197.08 141.06 197.59 137.39 199.24 134.18C202.95 126.94 213.09 125.53 216.11 125.27C223.5 124.76 228.99 127.94 235.42 132.15C258.64 147.2 267.68 154.07 267.76 154.14C271.71 157.13 274.9 159.54 277.62 161.59C286.03 167.94 289.87 170.83 298.02 177.35C317.96 193.43 319.93 196.43 320.5 200.89C321.86 210.45 314.06 218.25 301.12 231.18L300.96 231.34C291.54 240.63 289.39 242.55 272.15 257.04C267.02 261.29 264.34 263.59 258.45 268.63C255.51 271.15 251.78 274.34 246.56 278.78C245.53 279.65 244.54 280.49 243.57 281.32C233.98 289.5 226.4 295.95 215.4 297.93C214.18 298.15 212.88 298.26 211.56 298.26L211.58 298.29ZM194.2 270.67C194.52 270.67 194.83 270.72 195.14 270.83C195.72 271.03 196.72 271.62 197 273.27C197.1 273.96 197.19 274.6 197.28 275.22C198.16 281.44 198.79 285.94 203.34 291.33C205.59 294.18 210.81 294.71 214.72 294.01C224.65 292.22 231.87 286.08 241 278.29C241.98 277.46 242.98 276.61 244 275.74C249.21 271.3 252.93 268.12 255.87 265.6C261.77 260.55 264.47 258.25 269.61 253.98C286.72 239.59 288.86 237.68 298.16 228.51L298.31 228.36C310.77 215.9 317.63 209.04 316.55 201.43C316.17 198.39 313.97 195.35 295.53 180.48C287.43 174 283.61 171.11 275.23 164.79C272.51 162.74 269.32 160.33 265.36 157.33C265.27 157.26 256.32 150.46 233.26 135.51C227.27 131.59 222.57 128.86 216.45 129.27C211.33 129.71 205.03 131.72 202.83 136.02C201.49 138.63 201.02 141.93 200.65 144.59C200.16 148.08 199.81 150.6 197.67 151.41C195.72 152.15 193.88 150.58 193.28 150.07L192.42 149.33C189.9 147.15 186.1 143.85 176.55 137.77C171.87 134.79 168.2 132.46 162.9 132.17H162.61C157.1 132.07 152.6 133.32 149.24 135.91C144.95 139.19 143.34 143.88 142.74 146.94L142.61 148.57C140.83 170.09 141.62 191.75 142.38 212.71L142.46 214.85C143.22 237.61 143.15 258.5 143.1 272.31C143.09 275.4 143.08 278.19 143.08 280.64C143.08 283.23 143.08 290.1 147.4 292.87C148.28 293.46 150.87 295.19 158.93 293.1C170.84 290.01 180.28 281.54 186.52 275.94C190.34 272.52 192.38 270.68 194.22 270.68L194.2 270.67Z" fill="#C06228"/>
</g>
<defs>
<linearGradient id="paint0_linear_152_443" x1="220.74" y1="54.6699" x2="223.2" y2="348.14" gradientUnits="userSpaceOnUse">
<stop offset="0.1" stop-color="#FED777"/>
<stop offset="0.9" stop-color="#E8952B"/>
</linearGradient>
<clipPath id="clip0_152_443">
<rect width="444" height="410" fill="white"/>
</clipPath>
</defs>
</svg>
