<svg width="444" height="410" viewBox="0 0 444 410" fill="none" xmlns="http://www.w3.org/2000/svg">
<g clip-path="url(#clip0_165_288)">
<path d="M222 410C344.607 410 444 318.218 444 205C444 91.7816 344.607 0 222 0C99.3928 0 0 91.7816 0 205C0 318.218 99.3928 410 222 410Z" fill="#FBFADA"/>
<mask id="mask0_165_288" style="mask-type:luminance" maskUnits="userSpaceOnUse" x="63" y="46" width="310" height="311">
<path d="M218.088 356.628C303.607 356.628 372.934 287.207 372.934 201.572C372.934 115.937 303.607 46.5166 218.088 46.5166C132.569 46.5166 63.2422 115.937 63.2422 201.572C63.2422 287.207 132.569 356.628 218.088 356.628Z" fill="white"/>
</mask>
<g mask="url(#mask0_165_288)">
<path d="M372.934 49.9442L63.2422 52.5393V46.5166H372.934V49.9442Z" fill="#FED777"/>
<path d="M372.934 53.4206L63.2422 56.0157V52.5392L372.934 49.9441V53.4206Z" fill="#FED777"/>
<path d="M372.934 56.8972L63.2422 59.476V56.0158L372.934 53.4207V56.8972Z" fill="#FED676"/>
<path d="M372.934 60.3737L63.2422 62.9525V59.476L372.934 56.8972V60.3737Z" fill="#FDD575"/>
<path d="M372.934 63.8503L63.2422 66.4291V62.9526L372.934 60.3738V63.8503Z" fill="#FDD474"/>
<path d="M372.934 67.3266L63.2422 69.9054V66.4289L372.934 63.8501V67.3266Z" fill="#FDD373"/>
<path d="M372.934 70.8032L63.2422 73.382V69.9055L372.934 67.3267V70.8032Z" fill="#FDD372"/>
<path d="M372.934 74.2797L63.2422 76.8586V73.382L372.934 70.8032V74.2797Z" fill="#FCD271"/>
<path d="M372.934 77.7563L63.2422 80.3351V76.8586L372.934 74.2798V77.7563Z" fill="#FCD170"/>
<path d="M372.934 81.2329L63.2422 83.8117V80.3352L372.934 77.7563V81.2329Z" fill="#FCD06F"/>
<path d="M372.934 84.6929L63.2422 87.288V83.8115L372.934 81.2327V84.6929Z" fill="#FBCF6E"/>
<path d="M372.934 88.1694L63.2422 90.7645V87.288L372.934 84.6929V88.1694Z" fill="#FBCE6D"/>
<path d="M372.934 91.6459L63.2422 94.2411V90.7646L372.934 88.1694V91.6459Z" fill="#FBCD6C"/>
<path d="M372.934 95.1225L63.2422 97.7176V94.2411L372.934 91.646V95.1225Z" fill="#FACC6B"/>
<path d="M372.934 98.5991L63.2422 101.194V97.7177L372.934 95.1226V98.5991Z" fill="#FACC6A"/>
<path d="M372.934 102.076L63.2422 104.671V101.194L372.934 98.5991V102.076Z" fill="#FACB69"/>
<path d="M372.934 105.552L63.2422 108.147V104.671L372.934 102.075V105.552Z" fill="#FACA68"/>
<path d="M372.934 109.029L63.2422 111.607V108.147L372.934 105.552V109.029Z" fill="#F9C967"/>
<path d="M372.934 112.505L63.2422 115.084V111.607L372.934 109.029V112.505Z" fill="#F9C866"/>
<path d="M372.934 115.982L63.2422 118.56V115.084L372.934 112.505V115.982Z" fill="#F9C765"/>
<path d="M372.934 119.458L63.2422 122.037V118.56L372.934 115.981V119.458Z" fill="#F8C664"/>
<path d="M372.934 122.935L63.2422 125.513V122.037L372.934 119.458V122.935Z" fill="#F8C563"/>
<path d="M372.934 126.411L63.2422 128.99V125.513L372.934 122.935V126.411Z" fill="#F8C562"/>
<path d="M372.934 129.888L63.2422 132.466V128.99L372.934 126.411V129.888Z" fill="#F8C461"/>
<path d="M372.934 133.364L63.2422 135.943V132.467L372.934 129.888V133.364Z" fill="#F7C360"/>
<path d="M372.934 136.824L63.2422 139.42V135.943L372.934 133.364V136.824Z" fill="#F7C25F"/>
<path d="M372.934 140.301L63.2422 142.896V139.419L372.934 136.824V140.301Z" fill="#F7C15E"/>
<path d="M372.934 143.777L63.2422 146.372V142.896L372.934 140.301V143.777Z" fill="#F6C05D"/>
<path d="M372.934 147.254L63.2422 149.849V146.372L372.934 143.777V147.254Z" fill="#F6BF5C"/>
<path d="M372.934 150.73L63.2422 153.326V149.849L372.934 147.254V150.73Z" fill="#F6BE5B"/>
<path d="M372.934 154.207L63.2422 156.802V153.326L372.934 150.73V154.207Z" fill="#F5BD5A"/>
<path d="M372.934 157.683L63.2422 160.278V156.802L372.934 154.207V157.683Z" fill="#F5BD59"/>
<path d="M372.934 161.16L63.2422 163.755V160.278L372.934 157.683V161.16Z" fill="#F5BC58"/>
<path d="M372.934 164.637L63.2422 167.215V163.755L372.934 161.16V164.637Z" fill="#F5BB57"/>
<path d="M372.934 168.113L63.2422 170.692V167.215L372.934 164.636V168.113Z" fill="#F4BA56"/>
<path d="M372.934 171.589L63.2422 174.168V170.692L372.934 168.113V171.589Z" fill="#F4B955"/>
<path d="M372.934 175.066L63.2422 177.645V174.168L372.934 171.589V175.066Z" fill="#F4B854"/>
<path d="M372.934 178.542L63.2422 181.121V177.645L372.934 175.066V178.542Z" fill="#F3B753"/>
<path d="M372.934 182.019L63.2422 184.598V181.121L372.934 178.542V182.019Z" fill="#F3B652"/>
<path d="M372.934 185.496L63.2422 188.074V184.598L372.934 182.019V185.496Z" fill="#F3B650"/>
<path d="M372.934 188.972L63.2422 191.551V188.074L372.934 185.496V188.972Z" fill="#F3B54F"/>
<path d="M372.934 192.432L63.2422 195.028V191.551L372.934 188.972V192.432Z" fill="#F2B44E"/>
<path d="M372.934 195.909L63.2422 198.504V195.027L372.934 192.432V195.909Z" fill="#F2B34D"/>
<path d="M372.934 199.385L63.2422 201.98V198.504L372.934 195.909V199.385Z" fill="#F2B24C"/>
<path d="M372.934 202.862L63.2422 205.457V201.98L372.934 199.385V202.862Z" fill="#F1B14B"/>
<path d="M372.934 206.338L63.2422 208.933V205.457L372.934 202.862V206.338Z" fill="#F1B04A"/>
<path d="M372.934 209.815L63.2422 212.41V208.934L372.934 206.338V209.815Z" fill="#F1AF49"/>
<path d="M372.934 213.291L63.2422 215.887V212.41L372.934 209.815V213.291Z" fill="#F1AF48"/>
<path d="M372.934 216.768L63.2422 219.363V215.887L372.934 213.292V216.768Z" fill="#F0AE47"/>
<path d="M372.934 220.244L63.2422 222.823V219.363L372.934 216.768V220.244Z" fill="#F0AD46"/>
<path d="M372.934 223.721L63.2422 226.299V222.823L372.934 220.244V223.721Z" fill="#F0AC45"/>
<path d="M372.934 227.197L63.2422 229.776V226.3L372.934 223.721V227.197Z" fill="#EFAB44"/>
<path d="M372.934 230.674L63.2422 233.253V229.776L372.934 227.197V230.674Z" fill="#EFAA43"/>
<path d="M372.934 234.15L63.2422 236.729V233.253L372.934 230.674V234.15Z" fill="#EFA942"/>
<path d="M372.934 237.627L63.2422 240.206V236.729L372.934 234.15V237.627Z" fill="#EEA841"/>
<path d="M372.934 241.103L63.2422 243.682V240.206L372.934 237.627V241.103Z" fill="#EEA740"/>
<path d="M372.934 244.564L63.2422 247.159V243.682L372.934 241.104V244.564Z" fill="#EEA73F"/>
<path d="M372.934 248.04L63.2422 250.635V247.159L372.934 244.563V248.04Z" fill="#EEA63E"/>
<path d="M372.934 251.517L63.2422 254.112V250.635L372.934 248.04V251.517Z" fill="#EDA53D"/>
<path d="M372.934 254.993L63.2422 257.588V254.112L372.934 251.517V254.993Z" fill="#EDA43C"/>
<path d="M372.934 258.47L63.2422 261.065V257.588L372.934 254.993V258.47Z" fill="#EDA33B"/>
<path d="M372.934 261.946L63.2422 264.541V261.065L372.934 258.47V261.946Z" fill="#ECA23A"/>
<path d="M372.934 265.423L63.2422 268.018V264.541L372.934 261.946V265.423Z" fill="#ECA139"/>
<path d="M372.934 268.899L63.2422 271.495V268.018L372.934 265.423V268.899Z" fill="#ECA038"/>
<path d="M372.934 272.376L63.2422 274.955V271.495L372.934 268.899V272.376Z" fill="#ECA037"/>
<path d="M372.934 275.852L63.2422 278.431V274.954L372.934 272.375V275.852Z" fill="#EB9F36"/>
<path d="M372.934 279.329L63.2422 281.907V278.431L372.934 275.852V279.329Z" fill="#EB9E35"/>
<path d="M372.934 282.805L63.2422 285.384V281.907L372.934 279.329V282.805Z" fill="#EB9D34"/>
<path d="M372.934 286.282L63.2422 288.86V285.384L372.934 282.805V286.282Z" fill="#EA9C33"/>
<path d="M372.934 289.758L63.2422 292.337V288.861L372.934 286.282V289.758Z" fill="#EA9B32"/>
<path d="M372.934 293.235L63.2422 295.814V292.337L372.934 289.758V293.235Z" fill="#EA9A31"/>
<path d="M372.934 296.711L63.2422 299.29V295.814L372.934 293.235V296.711Z" fill="#E99930"/>
<path d="M372.934 300.172L63.2422 302.767V299.29L372.934 296.711V300.172Z" fill="#E9992F"/>
<path d="M372.934 303.648L63.2422 306.243V302.767L372.934 300.171V303.648Z" fill="#E9982E"/>
<path d="M372.934 307.124L63.2422 309.72V306.243L372.934 303.648V307.124Z" fill="#E9972D"/>
<path d="M372.934 310.601L63.2422 313.196V309.72L372.934 307.125V310.601Z" fill="#E8962C"/>
<path d="M372.934 314.078L63.2422 316.673V313.196L372.934 310.601V314.078Z" fill="#E8952B"/>
<path d="M63.2422 316.673L372.934 314.078V356.628H63.2422V316.673Z" fill="#E8952B"/>
</g>
<path d="M218.088 363.157C129.109 363.157 56.7224 290.672 56.7224 201.572C56.7224 112.473 129.109 39.988 218.088 39.988C307.067 39.988 379.454 112.473 379.454 201.572C379.454 290.672 307.067 363.157 218.088 363.157ZM218.088 53.0454C136.297 53.0454 69.7621 119.67 69.7621 201.572C69.7621 283.475 136.297 350.1 218.088 350.1C299.879 350.1 366.414 283.475 366.414 201.572C366.414 119.67 299.879 53.0454 218.088 53.0454Z" fill="#DF8C26"/>
<path d="M176.687 136.612C186.467 152.607 202.115 175.947 215.969 189.005C215.154 171.214 219.229 143.631 225.26 127.962C233.899 105.601 250.035 84.0565 272.366 68.5509C273.67 67.7348 273.996 66.4291 274.974 65.7762C259 58.9211 241.559 54.6775 223.141 53.8614C200.974 52.8821 179.784 56.7993 160.388 64.4705C161.04 65.613 161.529 66.9188 161.529 68.7141C160.551 92.3805 163.811 115.721 176.687 136.449V136.612Z" fill="#FFD04E"/>
<path d="M256.066 136.123C245.96 152.281 231.454 177.09 225.749 195.697C241.723 186.72 268.943 177.416 286.057 175.458C310.507 172.846 337.727 177.09 362.176 189.658C363.48 190.31 364.947 190.147 365.925 190.8C364.947 173.336 360.872 155.872 353.212 138.897C344.084 118.658 330.881 101.521 314.908 87.9736C314.256 89.1161 313.115 90.2587 311.485 90.9115C289.317 101.194 269.269 114.904 256.066 136.123Z" fill="#F8B019"/>
<path d="M292.088 204.184C273.181 202.878 244.819 202.062 225.912 205.653C241.233 215.446 261.771 234.868 271.388 248.905C284.916 269.144 293.718 294.932 293.881 322.353C293.881 323.822 294.696 324.964 294.696 326.107C309.529 317.13 323.057 305.215 334.467 290.525C347.996 272.898 356.96 253.149 361.524 232.91C360.22 232.91 358.753 232.42 357.449 231.278C338.216 216.588 317.026 205.653 292.414 204.021H292.088V204.184Z" fill="#F0A020"/>
<path d="M256.229 268.818C247.101 252.659 232.595 228.667 219.392 215.12C219.392 232.747 214.176 260.004 207.493 275.183C197.877 296.891 180.762 317.62 157.78 331.983C156.476 332.799 155.987 334.104 155.009 334.594C170.656 342.102 187.934 346.999 206.352 348.794C228.52 350.753 249.872 347.978 269.432 341.123C268.78 339.98 268.454 338.511 268.617 336.879C270.573 313.376 268.454 290.199 256.555 268.981H256.229V268.818Z" fill="#F0A020"/>
<path d="M188.423 271.429C196.247 254.128 207.167 227.687 210.427 208.754C195.921 219.689 170.33 232.257 153.868 236.338C130.071 242.05 102.85 241.234 77.0969 231.767C75.63 231.278 74.326 231.767 73.1851 231.115C76.445 248.252 82.8018 265.064 92.5815 280.896C104.317 299.829 119.639 315.171 137.079 326.433C137.568 325.127 138.546 323.985 140.013 323.169C160.551 310.275 178.317 294.279 188.586 271.592H188.423V271.429Z" fill="#F0A020"/>
<path d="M143.11 206.795C162.018 205.326 190.216 202.062 208.308 195.697C191.846 188.352 168.537 172.03 157.128 159.462C140.828 141.509 128.441 117.189 124.366 90.0954C124.203 88.6265 123.062 87.6472 123.062 86.5046C109.696 97.6034 97.9604 111.314 88.9956 127.472C78.0749 146.895 72.0441 167.623 70.5771 188.515C71.8811 188.515 73.3481 188.515 74.815 189.494C95.8415 201.246 118.498 208.917 143.11 206.958V206.795Z" fill="#F8B019"/>
<g style="mix-blend-mode:luminosity" opacity="0.9">
<path d="M261.771 103.316C268.291 106.58 273.018 103.806 281.656 108.702C291.436 114.088 301.216 122.576 306.269 134.001C308.062 138.244 309.203 142.325 309.529 145.916C309.855 149.996 320.938 142.162 323.383 135.307C326.317 127.309 321.916 119.475 319.471 114.741C310.018 97.6035 292.088 92.0542 287.687 90.7484C278.722 88.3002 262.423 86.3416 259.163 92.707C257.533 95.9714 258.511 101.684 261.771 103.316Z" fill="#F8FBF4"/>
</g>
<path d="M234.225 270.94C231.617 266.859 230.15 262.126 230.15 257.393V148.854C230.15 146.405 230.965 144.12 232.595 142.162C235.366 139.061 239.603 135.143 245.634 132.369C256.718 127.309 266.824 128.941 271.225 129.757C281.167 131.553 288.339 136.286 292.74 139.714C294.859 141.346 296 143.957 296 146.569L296.815 218.547L297.141 256.413C297.141 265.88 292.577 274.857 284.753 280.243L283.123 281.386C279.863 283.671 276.44 285.629 272.692 287.098C264.542 288.893 261.445 288.567 255.088 286.772L250.687 284.813C244.004 281.712 238.462 276.815 234.388 270.776H234.225V270.94Z" fill="white"/>
<path d="M263.922 291.57C260.776 291.57 258.006 290.983 254.208 289.922L253.768 289.758L249.367 287.8C244.982 285.76 240.972 282.985 237.484 279.574L231.486 272.702C228.487 268.002 226.89 262.714 226.89 257.393V148.854C226.89 145.622 227.998 142.586 230.084 140.073C234.273 135.372 239.033 131.814 244.265 129.398C256.669 123.735 268.062 125.84 271.811 126.542C279.977 128.011 287.475 131.487 294.728 137.135C297.548 139.305 299.243 142.847 299.243 146.569L300.058 218.514L300.384 256.381C300.384 267.071 295.217 276.979 286.579 282.936L284.965 284.062C281.216 286.69 277.581 288.681 273.849 290.134L273.36 290.281C269.415 291.146 266.53 291.554 263.89 291.554L263.922 291.57ZM256.196 283.687C261.706 285.237 264.248 285.596 271.746 283.964C274.908 282.708 278.021 280.977 281.265 278.709L282.895 277.566C289.79 272.817 293.897 264.917 293.897 256.413L293.571 218.58L292.756 146.601C292.756 144.855 292.006 143.255 290.768 142.292C284.346 137.298 277.777 134.246 270.654 132.956C265.014 131.912 256.424 131.014 246.987 135.323C242.57 137.347 238.544 140.383 235.023 144.316C233.98 145.573 233.409 147.124 233.409 148.837V257.376C233.409 260.771 234.322 264.313 236.001 267.496H236.115L237.077 268.932C240.907 274.612 246.074 279.068 252.04 281.842L256.18 283.687H256.196Z" fill="#C06228"/>
<path d="M142.784 270.94C140.176 266.859 138.709 262.126 138.709 257.393V148.854C138.709 146.405 139.524 144.12 141.154 142.162C143.925 139.061 148.163 135.143 154.194 132.369C165.278 127.309 175.383 128.941 179.784 129.757C189.727 131.553 196.899 136.286 201.3 139.714C203.418 141.346 204.559 143.957 204.559 146.569L205.374 218.547L205.7 256.413C205.7 265.88 201.137 274.857 193.313 280.243L191.52 281.386C188.26 283.671 184.837 285.629 181.088 287.098C172.938 288.893 169.841 288.567 163.485 286.772L159.084 284.813C152.401 281.712 146.696 276.815 142.784 270.776V270.94Z" fill="white"/>
<path d="M172.319 291.57C169.173 291.57 166.402 290.983 162.604 289.922L162.164 289.759L157.763 287.8C153.379 285.76 149.418 283.067 146.044 279.819L140.046 272.702C137.047 268.002 135.449 262.714 135.449 257.393V148.854C135.449 145.622 136.558 142.586 138.644 140.073C142.833 135.372 147.592 131.814 152.825 129.398C165.229 123.735 176.622 125.857 180.371 126.542C188.537 128.011 196.035 131.487 203.288 137.135C206.108 139.306 207.803 142.847 207.803 146.569L208.618 218.515L208.944 256.381C208.944 267.071 203.777 276.979 195.138 282.936L193.247 284.144C189.613 286.69 185.978 288.681 182.262 290.134L181.773 290.281C177.828 291.146 174.943 291.554 172.303 291.554L172.319 291.57ZM164.593 283.687C170.102 285.237 172.645 285.597 180.126 283.964C183.288 282.708 186.402 280.978 189.645 278.709L191.552 277.485C198.333 272.817 202.424 264.917 202.424 256.413L202.098 218.58L201.283 146.601C201.283 144.855 200.533 143.255 199.295 142.292C192.873 137.298 186.304 134.246 179.181 132.956C173.525 131.912 164.951 131.014 155.514 135.323C151.097 137.347 147.071 140.383 143.55 144.316C142.507 145.573 141.936 147.124 141.936 148.837V257.376C141.936 260.788 142.849 264.346 144.544 267.545L145.473 268.997C149.059 274.53 154.226 278.986 160.404 281.843L164.544 283.687H164.593Z" fill="#C06228"/>
</g>
<defs>
<clipPath id="clip0_165_288">
<rect width="444" height="410" fill="white"/>
</clipPath>
</defs>
</svg>
