<svg width="226" height="230" viewBox="0 0 226 230" fill="none" xmlns="http://www.w3.org/2000/svg">
<g filter="url(#filter0_d_174_320)">
<path d="M35.9213 56.0099C32.5913 57.1899 30.4113 61.0599 31.1513 65.1999C30.2613 72.4199 29.7413 80.9099 30.1313 90.3899C30.4313 97.5399 31.2013 104.04 32.1713 109.79L62.1313 71.6599C55.7813 66.8899 49.4213 62.1299 43.0713 57.3599C42.8113 57.1599 39.5213 54.7199 35.9213 55.9999V56.0099Z" fill="#8B004F"/>
<path d="M70.3814 32.9601C68.5814 36.3401 66.7014 40.5201 65.2014 45.4601C62.8414 53.1701 62.2014 60.0401 62.1414 65.2001C72.5814 61.3401 83.0214 57.4801 93.4614 53.6301C92.3514 50.2601 90.5714 45.9601 87.6714 41.3701C84.9914 37.1401 82.1314 33.8901 79.7314 31.5201C78.6514 29.7701 76.6214 28.8401 70.3914 32.9601H70.3814Z" fill="#8B004F"/>
<path d="M128.631 30.01C125.111 31.63 121.261 33.67 117.281 36.27C109.031 41.64 102.911 47.6 98.5613 52.61C111.751 55.57 124.931 58.53 138.121 61.48C139.101 58.35 140.271 53.19 139.751 46.82C139.321 41.55 137.881 37.36 136.681 34.58C136.811 32.62 135.801 30.74 128.631 30V30.01Z" fill="#8B004F"/>
<path d="M171.631 57.4L147.451 65.88L169.241 87.33L180.291 67.72C183.551 61.93 177.901 55.2 171.641 57.4H171.631Z" fill="#8B004F"/>
<path d="M189.721 99.4901L164.341 96.8601L175.571 126.48L193.301 110.46C197.361 106.79 195.151 100.05 189.721 99.4901Z" fill="#8B004F"/>
<path d="M186.431 154.68L174.771 140.1L160.131 166.99L182.031 165C187.091 164.54 189.601 158.64 186.431 154.68Z" fill="#8B004F"/>
<path d="M104.691 199.08C145.936 199.08 179.371 165.645 179.371 124.4C179.371 83.1553 145.936 49.72 104.691 49.72C63.4466 49.72 30.0112 83.1553 30.0112 124.4C30.0112 165.645 63.4466 199.08 104.691 199.08Z" fill="url(#paint0_radial_174_320)"/>
<g style="mix-blend-mode:soft-light">
<path d="M58.4712 108.95C63.972 108.95 68.4312 102.664 68.4312 94.9101C68.4312 87.156 63.972 80.8701 58.4712 80.8701C52.9705 80.8701 48.5112 87.156 48.5112 94.9101C48.5112 102.664 52.9705 108.95 58.4712 108.95Z" fill="#FE0FA3"/>
<path d="M45.9613 140.1C50.1918 140.1 53.6213 135.986 53.6213 130.91C53.6213 125.835 50.1918 121.72 45.9613 121.72C41.7308 121.72 38.3013 125.835 38.3013 130.91C38.3013 135.986 41.7308 140.1 45.9613 140.1Z" fill="#FE0FA3"/>
<path d="M122.301 86.4801C125.261 86.4801 127.661 82.3656 127.661 77.2901C127.661 72.2146 125.261 68.1001 122.301 68.1001C119.341 68.1001 116.941 72.2146 116.941 77.2901C116.941 82.3656 119.341 86.4801 122.301 86.4801Z" fill="#FE0FA3"/>
<path d="M138.901 170.73C142.85 170.73 146.051 166.387 146.051 161.03C146.051 155.673 142.85 151.33 138.901 151.33C134.952 151.33 131.751 155.673 131.751 161.03C131.751 166.387 134.952 170.73 138.901 170.73Z" fill="#FE0FA3"/>
<path d="M163.791 122.99C167.668 122.99 170.811 119.847 170.811 115.97C170.811 112.093 167.668 108.95 163.791 108.95C159.914 108.95 156.771 112.093 156.771 115.97C156.771 119.847 159.914 122.99 163.791 122.99Z" fill="#FE0FA3"/>
<path d="M101.501 66.3101C103.97 66.3101 105.971 64.3088 105.971 61.8401C105.971 59.3714 103.97 57.3701 101.501 57.3701C99.0325 57.3701 97.0312 59.3714 97.0312 61.8401C97.0312 64.3088 99.0325 66.3101 101.501 66.3101Z" fill="#FE0FA3"/>
</g>
</g>
<defs>
<filter id="filter0_d_174_320" x="0" y="0" width="225.391" height="229.08" filterUnits="userSpaceOnUse" color-interpolation-filters="sRGB">
<feFlood flood-opacity="0" result="BackgroundImageFix"/>
<feColorMatrix in="SourceAlpha" type="matrix" values="0 0 0 0 0 0 0 0 0 0 0 0 0 0 0 0 0 0 127 0" result="hardAlpha"/>
<feOffset/>
<feGaussianBlur stdDeviation="15"/>
<feColorMatrix type="matrix" values="0 0 0 0 1 0 0 0 0 0.85098 0 0 0 0 0.94902 0 0 0 1 0"/>
<feBlend mode="normal" in2="BackgroundImageFix" result="effect1_dropShadow_174_320"/>
<feBlend mode="normal" in="SourceGraphic" in2="effect1_dropShadow_174_320" result="shape"/>
</filter>
<radialGradient id="paint0_radial_174_320" cx="0" cy="0" r="1" gradientUnits="userSpaceOnUse" gradientTransform="translate(104.691 124.4) scale(109.33 109.33)">
<stop stop-color="#FE0FA3"/>
<stop offset="1" stop-color="#8B004F"/>
</radialGradient>
</defs>
</svg>
