<svg width="243" height="242" viewBox="0 0 243 242" fill="none" xmlns="http://www.w3.org/2000/svg">
<path d="M161.68 16.99C165.33 16.99 168.76 18.32 171.07 20.78C174.4 24.33 175.2 30.02 173.22 35.2L163.4 73.44C162.14 83.08 166.69 92.55 174.99 97.6L209.32 118.48C219.42 124.62 216.69 139.97 205.1 142.26L164.39 150.3C161.56 150.91 154.97 152.76 149.6 158.66C147.1 161.4 145.6 164.2 144.7 166.34L123.38 208.06C120.8 212.35 116.29 214.92 111.62 214.92C111.01 214.92 110.41 214.88 109.8 214.79C103.4 213.85 100.32 208.34 99.9798 207.71L85.2099 172.89C83.1899 168.14 78.5399 165.05 73.3799 165.03L36.3199 164.91C18.5099 164.85 10.0699 142.94 23.2399 130.95L45.7298 110.48C50.6498 106 52.7999 99.24 51.3699 92.74L43.6698 57.72C41.2998 46.95 49.7299 37.52 59.8399 37.52C61.6499 37.52 63.5099 37.82 65.3699 38.47L93.1598 48.17C96.4498 49.32 99.8798 49.89 103.29 49.89C108.57 49.89 113.82 48.53 118.51 45.86L150.76 21.33C153.99 18.36 157.94 16.99 161.66 16.99M161.68 1.98999C154.2 1.98999 146.97 4.73998 141.23 9.74998L110.37 33.22C108.18 34.32 105.76 34.89 103.31 34.89C101.54 34.89 99.7899 34.59 98.1199 34.01L70.3299 24.31C66.9299 23.12 63.3998 22.52 59.8598 22.52C50.2798 22.52 41.3099 26.85 35.2399 34.39C29.2299 41.86 26.9698 51.54 29.0398 60.95L36.7399 95.97C37.0199 97.22 36.5999 98.54 35.6499 99.4L13.1598 119.87C2.54984 129.53 -0.970133 144.42 4.18987 157.81C9.34987 171.2 21.9498 179.88 36.2898 179.92L71.9599 180.03L86.1899 213.57L86.4599 214.21L86.7898 214.82C88.3998 217.82 94.6699 227.74 107.65 229.64C108.97 229.83 110.31 229.93 111.64 229.93C121.58 229.93 131.01 224.52 136.25 215.8L136.52 215.35L136.76 214.89L158.08 173.17L158.33 172.68L158.54 172.18C159.08 170.9 159.81 169.75 160.7 168.77C162.94 166.32 165.86 165.35 167.48 164.99L208.03 156.98C219.43 154.73 228.11 145.88 230.14 134.44C232.17 123 227.07 111.71 217.14 105.67L182.81 84.79C179.78 82.95 178.03 79.59 178.23 76.08L187.59 39.61C191.15 29.28 189.01 17.95 182.02 10.5C176.94 5.08998 169.53 1.97998 161.7 1.97998L161.68 1.98999Z" fill="white"/>
<g filter="url(#filter0_d_34_165)">
<path d="M100 207.73L85.23 172.91C83.21 168.16 78.56 165.07 73.4 165.05L36.34 164.93C18.53 164.87 10.09 142.96 23.26 130.97L45.75 110.5C50.67 106.02 52.82 99.26 51.39 92.76L43.69 57.74C40.9 45.04 53.11 34.21 65.39 38.49L93.18 48.19C101.57 51.12 110.81 50.27 118.52 45.88C129.27 37.7 140.02 29.53 150.77 21.35C157.18 15.47 166.4 15.83 171.06 20.79C174.39 24.34 175.19 30.03 173.21 35.21L163.39 73.45C162.13 83.09 166.68 92.56 174.98 97.61L209.31 118.49C219.41 124.63 216.68 139.98 205.09 142.27L164.38 150.31C161.55 150.92 154.96 152.77 149.59 158.67C147.09 161.41 145.59 164.21 144.69 166.35C137.58 180.26 130.48 194.17 123.37 208.07C120.45 212.92 115.07 215.57 109.79 214.8C103.39 213.86 100.31 208.35 99.97 207.72L100 207.73Z" stroke="#7F6526" stroke-width="3" stroke-miterlimit="10"/>
</g>
<path d="M120.63 106.77C120.63 106.77 120.63 106.69 120.62 106.65C113.17 126.82 104.83 147.01 81.1699 167.69C82.9199 169.02 84.3399 170.8 85.2299 172.91L98.3499 203.82C124.34 162.07 123.13 134.09 120.64 106.77H120.63Z" fill="#F9DB46"/>
<path d="M120.62 106.65C109.13 117.36 97.6497 128.07 80.7197 136.46C64.7997 144.61 43.8998 150.64 19.5098 155.2C22.7198 160.81 28.6598 164.92 36.3398 164.94L73.3998 165.06C76.2598 165.06 78.9598 166.02 81.1398 167.68C104.81 147.01 113.16 126.82 120.62 106.66V106.65Z" fill="#EFB329"/>
<path d="M80.6999 136.44C97.6299 128.05 109.12 117.35 120.61 106.65C105.61 111.2 90.5999 115.75 71.6899 115.91C62.8799 116.06 53.1899 115.23 42.5899 113.37L23.2599 130.97C15.7899 137.77 15.2799 147.76 19.4799 155.14C43.8699 150.6 64.7799 144.58 80.6999 136.43V136.44Z" fill="#F9DB46"/>
<path d="M120.62 106.65C120.56 106.65 120.5 106.63 120.44 106.62C98.0099 103.03 75.5698 99.38 48.2198 78.29L51.3999 92.7601C52.8299 99.2601 50.6799 106.02 45.7599 110.5L42.6399 113.34C53.2299 115.2 62.8999 116.03 71.6999 115.88C90.6099 115.72 105.62 111.18 120.63 106.64L120.62 106.65Z" fill="#EFB329"/>
<path d="M120.43 106.62C120.49 106.62 120.55 106.64 120.61 106.65C107.57 97.5699 94.53 88.4899 82.57 73.7499C74.7 64.2099 67.2999 52.2199 60.4099 37.5599C50.0599 37.1999 41.2699 46.7799 43.6799 57.7399L48.1899 78.2399C75.5499 99.3599 97.9899 103.01 120.42 106.62H120.43Z" fill="#F9DB46"/>
<path d="M120.62 106.64C120.59 106.58 120.55 106.52 120.52 106.46C112.63 92.66 104.75 78.84 100.34 60.47C99.45 56.96 98.6899 53.28 98.0499 49.44C96.4099 49.15 94.7799 48.74 93.1799 48.18L65.39 38.48C63.73 37.9 62.08 37.61 60.46 37.55C67.34 52.2 74.73 64.19 82.59 73.72C94.54 88.46 107.58 97.5501 120.61 106.64H120.62Z" fill="#EFB329"/>
<path d="M120.51 106.47C120.54 106.53 120.58 106.59 120.61 106.65C118.73 86.1899 117.55 65.3699 127.95 38.6899L118.52 45.8799C112.28 49.4299 105.05 50.6599 98.0698 49.4599C98.7098 53.2899 99.4598 56.9699 100.35 60.4799C104.75 78.8499 112.62 92.68 120.51 106.48V106.47Z" fill="#F9DB46"/>
<path d="M173.22 35.24V35.21C175.2 30.02 174.41 24.34 171.07 20.79C166.41 15.83 157.19 15.47 150.78 21.35C143.19 27.12 135.59 32.89 128 38.66C117.58 65.36 118.74 86.19 120.61 106.66C129.3 83.14 139.19 59.58 173.21 35.25L173.22 35.24Z" fill="#EFB329"/>
<path d="M120.62 106.64C132.11 95.9301 143.59 85.22 160.52 76.83C161.41 76.37 162.32 75.93 163.24 75.4901C163.27 74.8101 163.32 74.13 163.41 73.44L173.2 35.29C139.21 59.59 129.31 83.1301 120.62 106.64Z" fill="#F9DB46"/>
<path d="M120.62 106.64C135.62 102.09 150.63 97.54 169.54 97.38C171.23 97.35 172.95 97.38 174.7 97.41C167.18 92.69 162.83 84.3 163.23 75.52C162.32 75.96 161.41 76.4 160.53 76.85C143.6 85.24 132.11 95.94 120.62 106.64Z" fill="#EFB329"/>
<path d="M120.62 106.64C145.63 110.65 170.64 114.66 202.44 142.79L205.11 142.26C216.71 139.97 219.43 124.62 209.33 118.48L175 97.5999C174.91 97.5499 174.83 97.4899 174.74 97.4299C172.98 97.3899 171.24 97.3699 169.54 97.3899C150.62 97.5499 135.62 102.09 120.61 106.63L120.62 106.64Z" fill="#F9DB46"/>
<path d="M120.62 106.65C133.66 115.73 146.7 124.81 158.66 139.55C161.28 142.73 163.85 146.2 166.37 149.93L202.4 142.81C170.62 114.69 145.62 110.67 120.63 106.65H120.62Z" fill="#EFB329"/>
<path d="M158.64 139.57C146.69 124.83 133.65 115.74 120.62 106.65C120.65 106.7 120.68 106.76 120.71 106.81C128.6 120.62 136.49 134.44 140.9 152.82C142.11 157.6 143.08 162.7 143.83 168.09C144.13 167.51 144.42 166.93 144.72 166.36C145.62 164.22 147.12 161.42 149.62 158.68C154.99 152.79 161.58 150.94 164.41 150.32L166.34 149.94C163.83 146.21 161.26 142.75 158.65 139.57H158.64Z" fill="#F9DB46"/>
<path d="M120.71 106.81C120.68 106.76 120.65 106.7 120.62 106.65C120.62 106.65 120.62 106.73 120.63 106.77C123.14 134.1 124.35 162.09 98.3599 203.88L99.9999 207.73C100.34 208.36 103.42 213.87 109.82 214.81C115.1 215.58 120.48 212.93 123.4 208.08C130.2 194.77 137.01 181.45 143.81 168.14C143.06 162.74 142.1 157.63 140.88 152.84C136.48 134.46 128.6 120.63 120.71 106.82V106.81Z" fill="#EFB329"/>
<defs>
<filter id="filter0_d_34_165" x="0.336426" y="0.504395" width="241.705" height="240.928" filterUnits="userSpaceOnUse" color-interpolation-filters="sRGB">
<feFlood flood-opacity="0" result="BackgroundImageFix"/>
<feColorMatrix in="SourceAlpha" type="matrix" values="0 0 0 0 0 0 0 0 0 0 0 0 0 0 0 0 0 0 127 0" result="hardAlpha"/>
<feOffset dx="5" dy="5"/>
<feGaussianBlur stdDeviation="10"/>
<feColorMatrix type="matrix" values="0 0 0 0 0.988235 0 0 0 0 0.772549 0 0 0 0 0.270588 0 0 0 1 0"/>
<feBlend mode="normal" in2="BackgroundImageFix" result="effect1_dropShadow_34_165"/>
<feBlend mode="normal" in="SourceGraphic" in2="effect1_dropShadow_34_165" result="shape"/>
</filter>
</defs>
</svg>
