<svg width="228" height="243" viewBox="0 0 228 243" fill="none" xmlns="http://www.w3.org/2000/svg">
<path d="M63.03 17.4099C67.05 17.4099 71.17 19.4999 74.06 23.0499L102.27 50.6699C106.65 54.0199 111.91 55.7299 117.2 55.7299C121.24 55.7299 125.3 54.7299 128.99 52.7099L164.24 33.4199C166.3 32.2899 168.43 31.7799 170.48 31.7799C178.74 31.7799 185.78 39.9999 182.73 48.9599L169.34 88.2399C168.45 90.9999 166.77 97.6299 169.18 105.23C170.3 108.77 171.98 111.46 173.38 113.31C181.87 126.42 190.36 139.53 198.85 152.63C201.59 157.58 201.2 163.57 197.89 167.75C194.2 172.43 188.54 172.72 187.12 172.72C187 172.72 186.91 172.72 186.85 172.72L149.31 168.1C148.78 168.04 148.26 168 147.73 168C143.18 168 138.91 170.41 136.59 174.41L117.96 206.44C114.11 213.06 107.63 216.16 101.19 216.16C92.65 216.16 84.18 210.71 82.01 200.79L75.52 171.08C74.1 164.58 69.3201 159.34 62.9801 157.32L28.8 146.47C16.41 142.54 13.13 126.54 22.98 118.05L45.28 98.8299C52.01 93.0299 55.9 84.6099 55.95 75.7299C54.24 62.3299 52.5401 48.9299 50.8301 35.5299C48.9401 27.0399 53.87 19.2299 60.49 17.6799C61.32 17.4799 62.17 17.3899 63.03 17.3899M63.03 2.40991C61.0201 2.40991 59.01 2.63991 57.07 3.09991C42.21 6.58991 32.9 22.1499 36.03 38.0299L36.89 44.7499L40.93 76.4999C40.68 80.7399 38.7301 84.7099 35.4901 87.4999L13.19 106.72C4.52005 114.19 0.560048 125.8 2.86005 137.01C5.16005 148.22 13.36 157.34 24.27 160.8L58.45 171.65C59.67 172.04 60.6001 173.06 60.8701 174.31L67.36 204.02C70.85 220.01 84.76 231.19 101.19 231.19C113.56 231.19 124.67 224.77 130.93 214.02L148.86 183.19L185.02 187.64L185.7 187.72L186.38 187.74C186.53 187.74 186.78 187.75 187.12 187.75C190.43 187.75 201.84 186.98 209.66 177.08C216.75 168.1 217.66 155.67 211.97 145.39L211.72 144.94L211.44 144.5L203.15 131.7L185.97 105.18L185.67 104.72L185.34 104.28C184.5 103.17 183.87 101.97 183.47 100.7C182.47 97.5399 183.09 94.5199 183.58 92.9399L196.92 53.8199C199.87 45.1599 198.54 35.9699 193.26 28.5999C187.97 21.2099 179.45 16.7999 170.48 16.7999C165.84 16.7999 161.19 17.9999 157.04 20.2799L121.79 39.5699C120.39 40.3399 118.8 40.7399 117.2 40.7399C115.32 40.7399 113.52 40.1999 111.96 39.1799L85.05 12.8299C79.37 6.28991 71.21 2.41991 63.02 2.41991L63.03 2.40991Z" fill="white"/>
<g filter="url(#filter0_d_34_163)">
<path d="M186.86 172.72L149.32 168.1C144.2 167.47 139.19 169.95 136.6 174.42L117.97 206.45C109.02 221.84 85.8201 218.19 82.0201 200.8L75.5301 171.09C74.1101 164.59 69.3301 159.35 62.9901 157.33L28.8101 146.48C16.4201 142.55 13.1401 126.55 22.9901 118.06L45.2901 98.84C52.0201 93.04 55.9101 84.62 55.9601 75.74C54.2501 62.34 52.5501 48.94 50.8401 35.54C48.9501 27.05 53.8801 19.24 60.5001 17.69C65.2401 16.58 70.5601 18.74 74.0701 23.04L102.28 50.66C110 56.57 120.47 57.37 129 52.7L164.25 33.41C174.62 27.74 186.55 37.77 182.73 48.96L169.34 88.24C168.45 91 166.77 97.63 169.18 105.23C170.3 108.77 171.98 111.46 173.38 113.31C181.87 126.42 190.36 139.53 198.85 152.63C201.59 157.58 201.2 163.57 197.89 167.75C193.88 172.82 187.56 172.74 186.85 172.71L186.86 172.72Z" stroke="#7F6526" stroke-width="3" stroke-miterlimit="10"/>
</g>
<path d="M109.74 104.37C109.74 104.37 109.67 104.34 109.63 104.32C123.37 120.86 136.69 138.18 142.77 169.01C144.8 168.16 147.05 167.82 149.32 168.1L182.65 172.2C159.48 128.82 134.65 115.87 109.74 104.37Z" fill="#F9DB46"/>
<path d="M109.63 104.32C113.16 119.62 116.69 134.92 115.5 153.78C114.6 171.64 109.37 192.76 101.12 216.16C107.59 216.19 114.11 213.1 117.97 206.45L136.6 174.42C138.04 171.95 140.21 170.09 142.74 169.03C136.67 138.2 123.36 120.87 109.63 104.33V104.32Z" fill="#EFB329"/>
<path d="M115.47 153.78C116.67 134.92 113.15 119.62 109.63 104.32C106.07 119.59 102.51 134.86 93.1901 151.32C88.9101 159.03 83.3501 167 76.4401 175.26L82.0201 200.8C84.1701 210.67 92.5701 216.1 101.06 216.16C109.32 192.77 114.56 171.65 115.47 153.78Z" fill="#F9DB46"/>
<path d="M109.63 104.32C109.63 104.32 109.55 104.42 109.51 104.46C95.18 122.08 80.81 139.7 48.87 152.84L62.99 157.32C69.33 159.33 74.11 164.58 75.53 171.08L76.43 175.2C83.33 166.96 88.89 159 93.16 151.3C102.48 134.84 106.05 119.57 109.62 104.31L109.63 104.32Z" fill="#EFB329"/>
<path d="M109.51 104.47C109.51 104.47 109.59 104.37 109.63 104.33C95.24 111.08 80.86 117.83 62.12 120.82C49.92 122.87 35.84 123.28 19.7 121.91C14.22 130.7 18.11 143.09 28.82 146.49L48.83 152.84C80.8 139.71 95.19 122.1 109.52 104.47H109.51Z" fill="#F9DB46"/>
<path d="M109.63 104.32C109.56 104.32 109.49 104.32 109.42 104.32C93.52 104.25 77.61 104.16 59.5 98.8C56.02 97.82 52.45 96.63 48.7999 95.26C47.7299 96.54 46.56 97.74 45.27 98.84L22.97 118.06C21.64 119.21 20.56 120.49 19.7 121.86C35.83 123.23 49.8999 122.82 62.0899 120.78C80.8299 117.8 95.22 111.06 109.61 104.31L109.63 104.32Z" fill="#EFB329"/>
<path d="M109.42 104.32C109.49 104.32 109.56 104.32 109.63 104.32C90.9701 95.72 72.3601 86.33 54.4401 63.98L55.9501 75.74C55.9101 82.92 53.3501 89.8 48.8201 95.24C52.4601 96.61 56.0201 97.79 59.5001 98.77C77.6101 104.15 93.5201 104.24 109.42 104.32Z" fill="#F9DB46"/>
<path d="M74.09 23.07L74.07 23.05C70.56 18.75 65.24 16.59 60.5 17.7C53.88 19.25 48.95 27.06 50.84 35.55C52.04 45.01 53.24 54.47 54.44 63.93C72.35 86.31 90.97 95.71 109.63 104.32C93.61 85.03 78.15 64.69 74.09 23.06V23.07Z" fill="#EFB329"/>
<path d="M109.63 104.32C106.1 89.0201 102.57 73.7201 103.76 54.8601C103.81 53.8601 103.88 52.8501 103.96 51.8401C103.39 51.4701 102.82 51.0901 102.27 50.6701L74.13 23.1101C78.18 64.6901 93.62 85.0401 109.63 104.32Z" fill="#F9DB46"/>
<path d="M109.63 104.32C113.19 89.0501 116.76 73.7801 126.07 57.3201C126.89 55.8501 127.77 54.3601 128.68 52.8601C120.83 57.0101 111.39 56.5801 103.98 51.8501C103.9 52.8601 103.83 53.8701 103.78 54.8601C102.58 73.7201 106.1 89.0201 109.62 104.32H109.63Z" fill="#EFB329"/>
<path d="M109.63 104.32C125.6 84.67 141.59 65.02 181.85 51.54L182.73 48.97C186.54 37.78 174.61 27.75 164.25 33.42L129 52.71C128.91 52.76 128.82 52.8 128.73 52.85C127.81 54.35 126.92 55.85 126.1 57.33C116.78 73.79 113.21 89.06 109.64 104.32H109.63Z" fill="#F9DB46"/>
<path d="M109.63 104.32C124.02 97.5701 138.4 90.8201 157.14 87.8301C161.21 87.1501 165.49 86.6601 169.98 86.3401L181.83 51.5801C141.59 65.0401 125.6 84.6801 109.63 104.32Z" fill="#EFB329"/>
<path d="M157.15 87.8501C138.41 90.8301 124.02 97.5701 109.63 104.32C109.69 104.32 109.75 104.32 109.82 104.32C125.73 104.39 141.64 104.47 159.76 109.84C164.5 111.18 169.41 112.89 174.45 114.94C174.1 114.4 173.74 113.85 173.39 113.31C171.99 111.46 170.31 108.76 169.19 105.23C166.77 97.6301 168.46 91.0001 169.35 88.2401L169.99 86.3701C165.51 86.6801 161.23 87.1701 157.17 87.8501H157.15Z" fill="#F9DB46"/>
<path d="M109.82 104.32C109.76 104.32 109.7 104.32 109.63 104.32C109.63 104.32 109.7 104.35 109.74 104.37C134.66 115.86 159.51 128.8 182.7 172.2L186.85 172.71C187.56 172.73 193.88 172.82 197.89 167.75C201.2 163.57 201.59 157.58 198.85 152.63C190.72 140.08 182.59 127.53 174.46 114.98C169.41 112.93 164.5 111.21 159.74 109.86C141.62 104.48 125.71 104.39 109.8 104.31L109.82 104.32Z" fill="#EFB329"/>
<defs>
<filter id="filter0_d_34_163" x="0.7146" y="0.900391" width="226.452" height="241.763" filterUnits="userSpaceOnUse" color-interpolation-filters="sRGB">
<feFlood flood-opacity="0" result="BackgroundImageFix"/>
<feColorMatrix in="SourceAlpha" type="matrix" values="0 0 0 0 0 0 0 0 0 0 0 0 0 0 0 0 0 0 127 0" result="hardAlpha"/>
<feOffset dx="5" dy="5"/>
<feGaussianBlur stdDeviation="10"/>
<feColorMatrix type="matrix" values="0 0 0 0 0.988235 0 0 0 0 0.772549 0 0 0 0 0.270588 0 0 0 1 0"/>
<feBlend mode="normal" in2="BackgroundImageFix" result="effect1_dropShadow_34_163"/>
<feBlend mode="normal" in="SourceGraphic" in2="effect1_dropShadow_34_163" result="shape"/>
</filter>
</defs>
</svg>
