<svg width="282" height="294" viewBox="0 0 282 294" fill="none" xmlns="http://www.w3.org/2000/svg">
<path d="M132.75 16.97C134.14 16.97 135.51 17.16 136.83 17.56C142.66 19.32 147.07 24.98 148.18 31.83L161.45 79.36C166.11 90.58 176.95 98 189.1 98.27L239.31 99.42C254.08 99.76 260.72 118.08 249.6 127.8L210.56 161.95C207.88 164.39 201.91 170.5 199.77 180.24C198.78 184.77 198.91 188.74 199.27 191.62C200.27 211.12 201.27 230.61 202.27 250.11C202.14 257.18 197.97 263.42 191.78 265.88C189.78 266.67 187.84 266.97 186.05 266.97C181.09 266.97 177.29 264.7 176.73 264.35L138.98 235.89C136.12 233.74 132.71 232.64 129.28 232.64C126.52 232.64 123.76 233.35 121.27 234.77L81.08 257.8C77.09 260.09 72.94 261.12 68.94 261.12C53.59 261.12 40.34 246.04 45.7001 229.22L57.25 193C59.78 185.08 57.88 176.41 52.27 170.27L22.05 137.17C11.09 125.17 17.54 105.8 33.51 102.77L69.66 95.9C80.57 93.83 90.04 87.14 95.65 77.56C102.18 61.99 108.7 46.42 115.23 30.85C117.97 22.15 125.58 16.98 132.77 16.97M132.75 1.96996C118.76 1.96996 105.87 11.65 101.14 25.6L92.66 45.82L82.22 70.73C78.76 76.17 73.19 79.96 66.83 81.17L30.68 88.04C17.77 90.49 7.58003 99.4 3.43003 111.88C-0.719967 124.35 2.09005 137.59 10.9501 147.3L41.1701 180.4C43.1501 182.57 43.83 185.66 42.94 188.46L31.3901 224.68C27.5201 236.82 29.56 249.6 36.99 259.76C44.48 270.01 56.4201 276.13 68.9201 276.13C75.69 276.13 82.47 274.3 88.52 270.83L128.71 247.8C128.88 247.7 129.07 247.65 129.26 247.65C129.43 247.65 129.69 247.69 129.94 247.88L167.69 276.34L168.24 276.76L168.83 277.12C171.19 278.58 177.6 281.98 186.04 281.98C189.93 281.98 193.72 281.26 197.31 279.83C209.19 275.11 217.02 263.55 217.26 250.39V249.87L217.24 249.35L214.24 190.86L214.21 190.31L214.14 189.77C213.87 187.62 213.96 185.5 214.41 183.46C215.47 178.62 218.31 175.19 220.54 173.14L259.46 139.09C269.22 130.55 272.67 117.16 268.25 104.97C263.83 92.78 252.6 84.71 239.63 84.42L189.42 83.27C183.47 83.13 178.12 79.64 175.59 74.29L162.8 28.48C160.5 16.36 152.09 6.48996 141.15 3.18996C138.45 2.36996 135.62 1.95996 132.74 1.95996L132.75 1.96996Z" fill="white"/>
<g filter="url(#filter0_d_34_164)">
<path d="M176.73 264.36L138.98 235.9C133.83 232.02 126.86 231.58 121.26 234.79L81.0701 257.82C61.7601 268.89 38.9301 250.44 45.6901 229.24L57.2401 193.02C59.7701 185.1 57.8701 176.43 52.2601 170.29L22.0401 137.19C11.0801 125.19 17.5301 105.82 33.5001 102.79L69.6501 95.9199C80.5601 93.8499 90.0301 87.1599 95.6401 77.5799C102.17 62.0099 108.69 46.4399 115.22 30.8699C118.48 20.4999 128.69 15.1299 136.84 17.5899C142.67 19.3499 147.08 25.0099 148.19 31.8599L161.46 79.3899C166.12 90.6099 176.96 98.0299 189.11 98.2999L239.32 99.4499C254.09 99.7899 260.73 118.11 249.61 127.83L210.57 161.98C207.89 164.42 201.92 170.53 199.78 180.27C198.79 184.8 198.92 188.77 199.28 191.65C200.28 211.15 201.28 230.64 202.28 250.14C202.15 257.21 197.98 263.45 191.79 265.91C184.28 268.9 177.5 264.85 176.74 264.38L176.73 264.36Z" stroke="#7F6526" stroke-width="3" stroke-miterlimit="10"/>
</g>
<path d="M135.96 142.17C135.96 142.17 135.9 142.09 135.87 142.05C140.41 168.54 144 195.61 131.31 232.79C134.04 233.14 136.68 234.18 138.97 235.9L172.49 261.17C174.52 199.73 155.73 170.2 135.96 142.18V142.17Z" fill="#F9DB46"/>
<path d="M135.87 142.05C130.13 160.82 124.39 179.59 111.31 199.26C99.18 218.03 80.31 237.63 56.76 257.8C63.75 261.87 72.73 262.6 81.07 257.82L121.26 234.79C124.36 233.01 127.88 232.36 131.28 232.79C143.98 195.62 140.4 168.55 135.88 142.05H135.87Z" fill="#EFB329"/>
<path d="M111.28 199.24C124.37 179.58 130.12 160.81 135.87 142.04C122.47 156.34 109.07 170.64 88.7001 182.64C79.2501 188.31 68.25 193.47 55.61 198.08L45.68 229.22C41.85 241.25 47.5301 252.38 56.7001 257.75C80.2601 237.59 99.14 218 111.28 199.23V199.24Z" fill="#F9DB46"/>
<path d="M135.87 142.05C135.8 142.08 135.73 142.1 135.65 142.13C109.13 152.26 82.56 162.33 39.76 156.61L52.25 170.29C57.86 176.43 59.76 185.1 57.23 193.02L55.63 198.05C68.25 193.44 79.24 188.3 88.68 182.64C109.06 170.65 122.46 156.35 135.87 142.06V142.05Z" fill="#EFB329"/>
<path d="M135.65 142.13C135.72 142.1 135.79 142.08 135.87 142.05C116.08 140.37 96.29 138.69 74.13 130.2C59.65 124.79 44.14 116.44 27.52 104.87C16.09 110.95 12.56 126.81 22.03 137.18L39.72 156.56C82.53 162.32 109.12 152.25 135.65 142.13Z" fill="#F9DB46"/>
<path d="M135.87 142.05C135.8 142.01 135.72 141.96 135.65 141.92C118.48 131.91 101.32 121.87 85.0601 104.74C81.9001 101.5 78.7801 97.99 75.6901 94.23C73.7301 94.95 71.7101 95.51 69.6301 95.91L33.4801 102.78C31.3301 103.19 29.3501 103.9 27.5601 104.85C44.1601 116.41 59.6601 124.77 74.1301 130.18C96.2801 138.67 116.07 140.36 135.87 142.05Z" fill="#EFB329"/>
<path d="M135.65 141.92C135.72 141.96 135.8 142.01 135.87 142.05C121.05 121.08 106.76 99.2799 101.34 63.8899L95.63 77.5599C91.1 85.3099 84.03 91.1599 75.73 94.2099C78.81 97.9599 81.93 101.47 85.08 104.71C101.33 121.85 118.49 131.89 135.65 141.91V141.92Z" fill="#F9DB46"/>
<path d="M148.18 31.8699V31.8299C147.06 24.9799 142.65 19.3199 136.82 17.5599C128.68 15.0999 118.47 20.4699 115.2 30.8399C110.59 41.8299 105.97 52.8199 101.36 63.8099C106.76 99.2299 121.04 121.05 135.86 142.03C130.57 111.13 126.55 79.4499 148.17 31.8599L148.18 31.8699Z" fill="#EFB329"/>
<path d="M135.87 142.05C141.61 123.28 147.35 104.51 160.43 84.8399C161.11 83.7899 161.82 82.74 162.53 81.69C162.14 80.93 161.77 80.16 161.44 79.37L148.2 31.95C126.59 79.49 130.59 111.17 135.87 142.05Z" fill="#F9DB46"/>
<path d="M135.87 142.05C149.27 127.75 162.67 113.45 183.04 101.45C184.85 100.37 186.73 99.31 188.65 98.26C177.55 97.85 167.61 91.49 162.55 81.73C161.84 82.78 161.13 83.82 160.46 84.86C147.37 104.52 141.62 123.29 135.87 142.06V142.05Z" fill="#EFB329"/>
<path d="M135.87 142.05C165.45 130.76 195.03 119.47 247.04 130.05L249.6 127.81C260.72 118.08 254.08 99.7598 239.31 99.4298L189.1 98.2798C188.97 98.2798 188.85 98.2598 188.72 98.2598C186.79 99.3098 184.89 100.38 183.07 101.47C162.69 113.46 149.29 127.76 135.88 142.05H135.87Z" fill="#F9DB46"/>
<path d="M135.87 142.05C155.66 143.73 175.45 145.41 197.61 153.89C202.44 155.69 207.38 157.84 212.44 160.31L246.99 130.09C195.02 119.51 165.44 130.78 135.87 142.05Z" fill="#EFB329"/>
<path d="M197.61 153.92C175.46 145.43 155.67 143.74 135.87 142.05C135.94 142.09 136 142.13 136.07 142.17C153.25 152.18 170.42 162.22 186.68 179.36C190.98 183.77 195.21 188.7 199.39 194.06C199.35 193.25 199.31 192.44 199.27 191.63C198.91 188.75 198.78 184.78 199.77 180.25C201.91 170.51 207.87 164.4 210.56 161.96L212.41 160.34C207.36 157.88 202.42 155.73 197.6 153.93L197.61 153.92Z" fill="#F9DB46"/>
<path d="M136.07 142.17C136 142.13 135.94 142.09 135.87 142.05C135.87 142.05 135.93 142.13 135.96 142.17C155.76 170.19 174.56 199.73 172.55 261.21L176.73 264.36C177.49 264.83 184.27 268.87 191.78 265.89C197.97 263.43 202.14 257.19 202.27 250.12C201.31 231.45 200.36 212.79 199.4 194.12C195.22 188.74 190.97 183.81 186.67 179.38C170.42 162.23 153.25 152.19 136.08 142.17H136.07Z" fill="#EFB329"/>
<defs>
<filter id="filter0_d_34_164" x="0.0871582" y="0.495361" width="281.589" height="293.007" filterUnits="userSpaceOnUse" color-interpolation-filters="sRGB">
<feFlood flood-opacity="0" result="BackgroundImageFix"/>
<feColorMatrix in="SourceAlpha" type="matrix" values="0 0 0 0 0 0 0 0 0 0 0 0 0 0 0 0 0 0 127 0" result="hardAlpha"/>
<feOffset dx="5" dy="5"/>
<feGaussianBlur stdDeviation="10"/>
<feColorMatrix type="matrix" values="0 0 0 0 0.988235 0 0 0 0 0.772549 0 0 0 0 0.270588 0 0 0 1 0"/>
<feBlend mode="normal" in2="BackgroundImageFix" result="effect1_dropShadow_34_164"/>
<feBlend mode="normal" in="SourceGraphic" in2="effect1_dropShadow_34_164" result="shape"/>
</filter>
</defs>
</svg>
