<svg width="444" height="410" viewBox="0 0 444 410" fill="none" xmlns="http://www.w3.org/2000/svg">
<g clip-path="url(#clip0_152_438)">
<path d="M222 410C344.61 410 444 318.22 444 205C444 91.78 344.61 0 222 0C99.39 0 0 91.78 0 205C0 318.22 99.39 410 222 410Z" fill="#FBFADA"/>
<path d="M222 360.06C307.521 360.06 376.85 290.637 376.85 205C376.85 119.363 307.521 49.9399 222 49.9399C136.479 49.9399 67.15 119.363 67.15 205C67.15 290.637 136.479 360.06 222 360.06Z" fill="url(#paint0_linear_152_438)"/>
<path d="M180.6 140.04C190.38 156.04 206.03 179.38 219.88 192.43C219.06 174.64 223.14 147.06 229.17 131.39C237.81 109.03 253.95 87.48 276.28 71.98C277.58 71.16 277.91 69.86 279.05 69.21C263.08 62.35 245.64 58.11 227.22 57.3C205.05 56.32 183.7 60.24 164.47 67.91C165.29 69.05 165.61 70.52 165.61 72.15C164.63 95.82 167.89 119.16 180.77 139.89L180.61 140.05L180.6 140.04Z" fill="#FFD04E"/>
<path d="M259.98 139.55C249.87 155.71 235.37 180.52 229.66 199.12C245.63 190.14 272.85 180.84 289.97 178.88C314.42 176.27 341.64 180.51 366.09 193.08C367.39 193.73 368.86 193.57 369.84 194.22C368.86 176.76 364.79 159.29 357.13 142.32C348 122.08 334.8 104.94 318.83 91.3999C318.18 92.5399 317.04 93.6899 315.41 94.3399C293.08 104.62 273.2 118.33 259.99 139.55H259.98Z" fill="#F8B019"/>
<path d="M296 207.61C277.09 206.31 248.73 205.49 229.82 209.08C245.14 218.87 265.68 238.3 275.13 252.33C288.66 272.57 297.46 298.36 297.62 325.78C297.62 327.25 298.44 328.39 298.44 329.53C313.27 320.55 326.8 308.64 338.05 293.95C351.58 276.32 360.54 256.57 365.11 236.33C363.81 236.33 362.34 235.84 361.04 234.7C341.81 220.01 320.62 209.08 296 207.44V207.6V207.61Z" fill="#F0A020"/>
<path d="M260.14 272.24C251.01 256.08 236.51 232.09 223.3 218.54C223.3 236.17 218.08 263.42 211.4 278.6C201.78 300.31 184.67 321.04 161.69 335.4C160.39 336.22 159.9 337.52 158.92 338.01C174.57 345.52 191.84 350.41 210.26 352.21C232.43 354.17 253.78 351.39 273.34 344.54C272.69 343.4 272.36 341.93 272.52 340.3C274.48 316.8 272.52 293.62 260.46 272.4L260.13 272.24H260.14Z" fill="#F0A020"/>
<path d="M192.34 274.86C200.16 257.56 211.08 231.12 214.34 212.19C199.83 223.12 174.24 235.69 157.78 239.77C133.98 245.48 106.76 244.67 81.01 235.2C79.54 234.71 78.24 235.2 77.1 234.55C80.36 251.69 86.72 268.5 96.5 284.33C108.24 303.26 123.56 318.61 141 329.87C141.49 328.56 142.47 327.42 143.93 326.61C164.47 313.72 182.23 297.72 192.5 275.03L192.34 274.87V274.86Z" fill="#F0A020"/>
<path d="M146.86 210.22C165.77 208.75 193.97 205.49 212.06 199.12C195.6 191.78 172.29 175.45 160.88 162.89C144.58 144.94 132.19 120.62 128.12 93.5199C127.96 92.0499 126.82 91.0699 126.82 89.9299C113.45 101.03 101.72 114.74 92.75 130.9C81.83 150.32 75.8 171.05 74.33 191.94C75.63 191.94 77.1 191.94 78.57 192.92C99.6 204.67 122.25 212.34 146.87 210.38V210.22H146.86Z" fill="#F8B019"/>
<path d="M267.8 110.5C274.32 113.76 279.05 110.99 287.69 115.89C297.47 121.28 307.25 129.76 312.3 141.19C314.09 145.43 315.23 149.51 315.56 153.1C315.89 157.18 326.97 149.35 329.41 142.49C332.34 134.49 328.11 126.66 325.5 121.92C316.05 104.78 298.12 99.23 293.72 97.93C284.76 95.48 268.46 93.52 265.2 99.89C263.57 103.15 264.55 108.87 267.81 110.5H267.8Z" fill="#F8FBF4"/>
<path d="M222 57.9399C261.22 57.9399 298.1 73.2299 325.83 101.01C353.57 128.79 368.84 165.72 368.84 205C368.84 244.28 353.56 281.21 325.83 308.99C298.09 336.76 261.22 352.06 222 352.06C182.78 352.06 145.9 336.77 118.17 308.99C90.43 281.21 75.16 244.28 75.16 205C75.16 165.72 90.44 128.79 118.17 101.01C145.91 73.2399 182.78 57.9399 222 57.9399ZM222 49.9399C136.48 49.9399 67.15 119.36 67.15 205C67.15 290.64 136.48 360.06 222 360.06C307.52 360.06 376.85 290.64 376.85 205C376.85 119.36 307.52 49.9399 222 49.9399Z" fill="#DF8C26"/>
<path d="M183.48 135.89C170.65 131.99 157.67 141.39 157.25 154.79C156.6 175.64 157.05 198.82 159.38 223.88C161.46 246.23 164.73 266.81 168.58 285.39C171.35 298.75 186.22 305.64 198.22 299.16C216.55 289.25 236.3 277.27 256.72 262.77C275.22 249.64 291.56 236.37 305.86 223.61C315.67 214.86 314.57 199.16 303.57 191.97C285.3 180.04 263.67 167.72 238.64 156.52C219.12 147.79 200.54 141.08 183.49 135.9L183.48 135.89Z" fill="white"/>
<path d="M188.54 303.63C185.33 303.63 182.12 302.93 179.09 301.52C172.62 298.51 168.08 292.78 166.64 285.79C162.43 265.48 159.33 244.71 157.41 224.07C155.27 201.11 154.55 177.78 155.27 154.74C155.49 147.7 158.89 141.31 164.61 137.21C170.3 133.13 177.39 131.96 184.08 133.99C202.9 139.71 221.53 146.67 239.47 154.7C262.02 164.79 283.96 176.77 304.67 190.3C310.41 194.05 314 200.14 314.52 206.99C315.04 213.89 312.37 220.5 307.2 225.1C291.56 239.05 274.97 252.27 257.89 264.4C239.16 277.7 219.4 289.98 199.19 300.92C195.84 302.73 192.2 303.64 188.55 303.64L188.54 303.63ZM177.55 137.01C173.78 137.01 170.09 138.18 166.92 140.46C162.22 143.83 159.43 149.08 159.25 154.87C158.54 177.75 159.25 200.91 161.37 223.71C163.28 244.21 166.36 264.83 170.54 285C171.73 290.73 175.45 295.44 180.77 297.91C186.09 300.39 192.11 300.2 197.27 297.41C217.35 286.56 236.96 274.36 255.56 261.15C272.52 249.11 289 235.98 304.52 222.13C308.75 218.36 310.94 212.95 310.51 207.3C310.09 201.7 307.16 196.72 302.46 193.65C281.92 180.23 260.17 168.36 237.81 158.35C220.03 150.39 201.55 143.49 182.89 137.82C181.12 137.28 179.32 137.02 177.54 137.02L177.55 137.01Z" fill="#C06228"/>
</g>
<defs>
<linearGradient id="paint0_linear_152_438" x1="220.74" y1="54.6799" x2="223.2" y2="348.14" gradientUnits="userSpaceOnUse">
<stop offset="0.1" stop-color="#FED777"/>
<stop offset="0.9" stop-color="#E8952B"/>
</linearGradient>
<clipPath id="clip0_152_438">
<rect width="444" height="410" fill="white"/>
</clipPath>
</defs>
</svg>
