<svg width="741" height="740" viewBox="0 0 741 740" fill="none" xmlns="http://www.w3.org/2000/svg">
<g filter="url(#filter0_d_219_336)">
<path d="M621.381 688.285C446.961 713.675 272.531 716.795 98.1106 697.645C39.6706 690.975 2.14062 648.005 11.4006 605.305C44.6606 441.155 50.0606 277.075 27.6006 113.065C21.3306 70.3748 58.4406 27.9148 113.351 21.6348C277.611 3.59479 441.881 6.53479 606.141 30.4448C661.031 38.7648 698.461 81.4748 692.501 122.415C671.131 280.135 676.521 437.775 708.701 595.345C717.661 636.215 679.801 679.445 621.391 688.285H621.381Z" fill="url(#paint0_radial_219_336)"/>
</g>
<path d="M569.061 650.895C429.521 670.525 289.981 673.085 150.441 658.575C91.9207 652.195 54.2007 608.935 62.9907 566.325C89.2707 428.235 93.6907 290.195 76.2707 152.225C70.4207 109.615 107.651 66.8748 162.631 60.8748C294.041 47.2148 425.451 49.6248 556.861 68.1048C611.821 76.2148 649.361 119.235 643.801 160.085C627.231 292.765 631.661 425.385 657.081 557.945C665.581 598.725 627.561 642.285 569.061 650.895Z" fill="#2D84C1"/>
<g style="mix-blend-mode:screen">
<path d="M83.3206 581.645C109.601 443.555 114.021 305.515 96.6006 167.545C90.7506 124.935 127.981 82.1948 182.961 76.1948C314.371 62.5348 445.781 64.9448 577.191 83.4248C592.831 85.7348 607.051 90.8648 619.271 97.9748C603.851 83.0148 582.211 71.8448 556.871 68.1048C425.461 49.6248 294.051 47.2148 162.641 60.8748C107.661 66.8848 70.4306 109.615 76.2806 152.225C93.7106 290.205 89.2806 428.235 63.0006 566.325C56.8206 596.275 73.6106 626.545 104.451 644.105C86.9906 626.775 78.6806 604.125 83.3206 581.655V581.645Z" fill="#2D84C1"/>
</g>
<g style="mix-blend-mode:multiply">
<path d="M657.081 557.955C631.661 425.395 627.231 292.775 643.801 160.095C647.781 130.865 629.691 100.525 598.951 82.6548C616.961 100.125 626.481 122.765 623.481 144.775C606.911 277.455 611.341 410.075 636.761 542.635C645.261 583.415 607.241 626.975 548.741 635.585C409.201 655.215 269.661 657.775 130.121 643.265C112.731 641.365 97.1709 636.215 84.1309 628.785C99.7809 644.315 122.791 655.565 150.441 658.585C289.981 673.095 429.521 670.535 569.061 650.905C627.561 642.295 665.591 598.735 657.081 557.955Z" fill="#2D84C1"/>
</g>
<defs>
<filter id="filter0_d_219_336" x="0" y="0" width="740.011" height="739.995" filterUnits="userSpaceOnUse" color-interpolation-filters="sRGB">
<feFlood flood-opacity="0" result="BackgroundImageFix"/>
<feColorMatrix in="SourceAlpha" type="matrix" values="0 0 0 0 0 0 0 0 0 0 0 0 0 0 0 0 0 0 127 0" result="hardAlpha"/>
<feOffset dx="10" dy="10"/>
<feGaussianBlur stdDeviation="10"/>
<feColorMatrix type="matrix" values="0 0 0 0 0.105882 0 0 0 0 0.270588 0 0 0 0 0.384314 0 0 0 1 0"/>
<feBlend mode="normal" in2="BackgroundImageFix" result="effect1_dropShadow_219_336"/>
<feBlend mode="normal" in="SourceGraphic" in2="effect1_dropShadow_219_336" result="shape"/>
</filter>
<radialGradient id="paint0_radial_219_336" cx="0" cy="0" r="1" gradientUnits="userSpaceOnUse" gradientTransform="translate(184.751 130.073) scale(1081.85 811.392)">
<stop offset="0.15" stop-color="#8FBFDE"/>
<stop offset="1" stop-color="#2D84C1"/>
</radialGradient>
</defs>
</svg>
