<svg width="860" height="793" viewBox="0 0 860 793" fill="none" xmlns="http://www.w3.org/2000/svg">
<path d="M630.935 402.694L789.005 314.072L735.714 300.953L853.623 233.75L758.627 217.953L858 142.182L759.142 116.747L672.383 248.208L752.963 244.995L665.947 310.591L716.663 325.585L630.935 402.694Z" fill="white" stroke="#F2F2F3" stroke-miterlimit="10"/>
<path d="M222.114 395.197L68.163 309.52L126.345 296.401L6.89143 230.805L99.0562 213.134L2 134.953L100.343 109.786L187.102 240.175L118.107 241.514L192.251 307.914L138.703 318.624L222.114 395.197Z" fill="white" stroke="#F2F2F3" stroke-miterlimit="10"/>
<path d="M473.379 785.563L417.257 669.364L534.393 539.242L439.397 520.232L527.957 448.746L676.502 491.852L630.935 402.694L716.664 325.585L665.947 310.591L742.665 248.208H672.383L685.513 226.521H673.67L703.791 190.108L620.38 202.156L655.649 125.047L564.514 168.421L579.961 61.5923L478.528 129.063L464.111 42.5827L417.257 125.047L383.532 4.56348L346.975 132.008L265.107 80.3341L283.386 156.105L154.407 138.702L208.985 206.44L170.111 214.472L187.102 240.175L118.107 241.514L192.251 307.914L138.703 318.623L222.114 395.197L144.109 468.826L292.397 437.768L309.388 490.513L391.255 451.423L334.102 533.887L450.467 577.261L377.095 670.703L473.379 785.563Z" fill="url(#paint0_linear_152_439)" stroke="#F9F9FA" stroke-width="2" stroke-miterlimit="10"/>
<defs>
<linearGradient id="paint0_linear_152_439" x1="428.61" y1="37.2279" x2="435.293" y2="757.446" gradientUnits="userSpaceOnUse">
<stop offset="0.3" stop-color="#FFCD17"/>
<stop offset="0.4" stop-color="#FBC518"/>
<stop offset="0.5" stop-color="#E6971E"/>
<stop offset="0.6" stop-color="#D67523"/>
<stop offset="0.7" stop-color="#CD6126"/>
<stop offset="0.8" stop-color="#CA5A28"/>
</linearGradient>
</defs>
</svg>
