<svg width="444" height="410" viewBox="0 0 444 410" fill="none" xmlns="http://www.w3.org/2000/svg">
<g clip-path="url(#clip0_152_442)">
<path d="M222 410C344.61 410 444 318.22 444 205C444 91.78 344.61 0 222 0C99.39 0 0 91.78 0 205C0 318.22 99.39 410 222 410Z" fill="#FBFADA"/>
<path d="M222 360.06C307.521 360.06 376.85 290.637 376.85 205C376.85 119.363 307.521 49.9399 222 49.9399C136.479 49.9399 67.15 119.363 67.15 205C67.15 290.637 136.479 360.06 222 360.06Z" fill="url(#paint0_linear_152_442)"/>
<path d="M180.6 140.04C190.38 156.04 206.03 179.38 219.88 192.43C219.06 174.64 223.14 147.06 229.17 131.39C237.81 109.03 253.95 87.48 276.28 71.98C277.58 71.16 277.91 69.86 279.05 69.21C263.08 62.35 245.64 58.11 227.22 57.3C205.05 56.32 183.7 60.24 164.47 67.91C165.29 69.05 165.61 70.52 165.61 72.15C164.63 95.82 167.89 119.16 180.77 139.89L180.61 140.05L180.6 140.04Z" fill="#FFD04E"/>
<path d="M259.98 139.55C249.87 155.71 235.37 180.52 229.66 199.12C245.63 190.14 272.85 180.84 289.97 178.88C314.42 176.27 341.64 180.51 366.09 193.08C367.39 193.73 368.86 193.57 369.84 194.22C368.86 176.76 364.79 159.29 357.13 142.32C348 122.08 334.8 104.94 318.83 91.3999C318.18 92.5399 317.04 93.6899 315.41 94.3399C293.08 104.62 273.2 118.33 259.99 139.55H259.98Z" fill="#F8B019"/>
<path d="M296 207.61C277.09 206.31 248.73 205.49 229.82 209.08C245.14 218.87 265.68 238.3 275.13 252.33C288.66 272.57 297.46 298.36 297.62 325.78C297.62 327.25 298.44 328.39 298.44 329.53C313.27 320.55 326.8 308.64 338.05 293.95C351.58 276.32 360.54 256.57 365.11 236.33C363.81 236.33 362.34 235.84 361.04 234.7C341.81 220.01 320.62 209.08 296 207.44V207.6V207.61Z" fill="#F0A020"/>
<path d="M260.14 272.24C251.01 256.08 236.51 232.09 223.3 218.54C223.3 236.17 218.08 263.42 211.4 278.6C201.78 300.31 184.67 321.04 161.69 335.4C160.39 336.22 159.9 337.52 158.92 338.01C174.57 345.52 191.84 350.41 210.26 352.21C232.43 354.17 253.78 351.39 273.34 344.54C272.69 343.4 272.36 341.93 272.52 340.3C274.48 316.8 272.52 293.62 260.46 272.4L260.13 272.24H260.14Z" fill="#F0A020"/>
<path d="M192.34 274.86C200.16 257.56 211.08 231.12 214.34 212.19C199.83 223.12 174.24 235.69 157.78 239.77C133.98 245.48 106.76 244.67 81.01 235.2C79.54 234.71 78.24 235.2 77.1 234.55C80.36 251.69 86.72 268.5 96.5 284.33C108.24 303.26 123.56 318.61 141 329.87C141.49 328.56 142.47 327.42 143.93 326.61C164.47 313.72 182.23 297.72 192.5 275.03L192.34 274.87V274.86Z" fill="#F0A020"/>
<path d="M146.86 210.22C165.77 208.75 193.97 205.49 212.06 199.12C195.6 191.78 172.29 175.45 160.88 162.89C144.58 144.94 132.19 120.62 128.12 93.5199C127.96 92.0499 126.82 91.0699 126.82 89.9299C113.45 101.03 101.72 114.74 92.75 130.9C81.83 150.32 75.8 171.05 74.33 191.94C75.63 191.94 77.1 191.94 78.57 192.92C99.6 204.67 122.25 212.34 146.87 210.38V210.22H146.86Z" fill="#F8B019"/>
<path d="M267.8 110.5C274.32 113.76 279.05 110.99 287.69 115.89C297.47 121.28 307.25 129.76 312.3 141.19C314.09 145.43 315.23 149.51 315.56 153.1C315.89 157.18 326.97 149.35 329.41 142.49C332.34 134.49 328.11 126.66 325.5 121.92C316.05 104.78 298.12 99.23 293.72 97.93C284.76 95.48 268.46 93.52 265.2 99.89C263.57 103.15 264.55 108.87 267.81 110.5H267.8Z" fill="#F8FBF4"/>
<path d="M222 57.9399C261.22 57.9399 298.1 73.2299 325.83 101.01C353.57 128.79 368.84 165.72 368.84 205C368.84 244.28 353.56 281.21 325.83 308.99C298.09 336.76 261.22 352.06 222 352.06C182.78 352.06 145.9 336.77 118.17 308.99C90.43 281.21 75.16 244.28 75.16 205C75.16 165.72 90.44 128.79 118.17 101.01C145.91 73.2399 182.78 57.9399 222 57.9399ZM222 49.9399C136.48 49.9399 67.15 119.36 67.15 205C67.15 290.64 136.48 360.06 222 360.06C307.52 360.06 376.85 290.64 376.85 205C376.85 119.36 307.52 49.9399 222 49.9399Z" fill="#DF8C26"/>
<path d="M151.3 156.43C146.46 153.71 141.76 151.25 137.26 149.05C131.87 146.42 125.59 149.38 124.64 155.05C123.05 164.47 121.92 175.33 121.86 187.41C121.82 196.83 122.44 205.54 123.41 213.38C124.14 219.28 130.38 223.11 135.98 221.14C144.69 218.07 154.16 214.18 164.06 209.21C172.89 204.78 180.78 200.14 187.73 195.59C192.73 192.32 192.86 185.1 188 181.2C183.72 177.77 179.05 174.25 174.02 170.72C182.48 162.31 193.11 156.23 205.05 154.76C232.8 151 263.81 169.42 269.59 197.2C276.84 228.23 249.74 262.2 218.07 262.48C208.38 262.89 196.13 260.05 187.7 255.72C184.49 254.19 171.62 260.48 165.8 273.6C161.15 284.07 161.44 297.9 166.96 301.22C169.76 302.53 175.09 304.43 180.55 305.82C243.27 323.92 306.47 280.64 309.48 214.96C310.61 128.64 200.5 92.4499 151.29 156.4L151.3 156.43Z" fill="white"/>
<path d="M209.62 312C199.77 312 189.81 310.61 180 307.78C174.2 306.3 168.84 304.34 166.12 303.07L165.94 302.97C159.01 298.8 159.19 283.62 163.98 272.82C168.23 263.24 176.36 256.65 182.54 254.36C185.12 253.41 187.14 253.27 188.57 253.95C197 258.28 208.81 260.91 218 260.51C232.45 260.38 247 252.71 257.01 239.99C267.07 227.19 270.95 211.77 267.66 197.68C262.34 172.08 233.22 153 205.34 156.76C195.27 158 185.58 162.73 177.17 170.5C181.33 173.47 185.39 176.54 189.27 179.65C192.13 181.95 193.74 185.44 193.57 188.99C193.41 192.39 191.68 195.41 188.84 197.27C181.2 202.27 173.17 206.89 164.97 211.01C155.86 215.58 146.33 219.63 136.65 223.03C133.4 224.17 129.81 223.76 126.81 221.9C123.82 220.05 121.86 217.03 121.43 213.62C120.35 204.92 119.82 196.1 119.86 187.39C119.91 176.44 120.85 165.44 122.66 154.7C123.2 151.47 125.19 148.76 128.12 147.26C131.24 145.66 134.89 145.65 138.13 147.23C142.33 149.28 146.58 151.5 150.78 153.82C173.98 124.86 212.52 114.44 249.47 127.28C267.35 133.49 282.61 144.46 293.61 159C305.58 174.81 311.76 194.17 311.49 214.99C310.06 246.35 294.79 274.66 269.61 292.71C251.92 305.4 231.02 311.97 209.63 311.97L209.62 312ZM167.92 299.5C170.43 300.66 175.55 302.52 181.05 303.93C211.03 312.58 242.43 307.31 267.27 289.5C291.45 272.16 306.11 244.97 307.48 214.91C308.08 168.54 277.23 141.2 248.15 131.1C212.28 118.64 174.89 129.06 152.88 157.66L151.82 159.03L150.31 158.18C145.69 155.58 141 153.12 136.37 150.86C134.27 149.83 131.92 149.83 129.94 150.86C128.15 151.78 126.93 153.44 126.6 155.41C124.82 165.94 123.9 176.72 123.85 187.45C123.81 195.98 124.33 204.64 125.39 213.17C125.66 215.37 126.94 217.32 128.9 218.54C130.87 219.76 133.21 220.04 135.31 219.29C144.83 215.94 154.2 211.96 163.16 207.46C171.22 203.42 179.12 198.87 186.63 193.96C188.39 192.81 189.45 190.94 189.55 188.84C189.66 186.53 188.64 184.33 186.74 182.81C182.31 179.26 177.64 175.76 172.86 172.41L170.9 171.04L172.59 169.36C182.02 159.98 193.15 154.27 204.79 152.84C218.73 150.95 233.98 154.48 246.62 162.53C259.83 170.95 268.68 183.14 271.53 196.86C275.09 212.09 270.93 228.74 260.12 242.5C249.37 256.17 233.66 264.41 218.07 264.55C208.32 264.97 195.71 262.16 186.77 257.57C184.89 256.9 173.09 262.14 167.61 274.48C163.03 284.8 163.96 297 167.9 299.53L167.92 299.5Z" fill="#C06228"/>
</g>
<defs>
<linearGradient id="paint0_linear_152_442" x1="220.74" y1="54.6699" x2="223.2" y2="348.14" gradientUnits="userSpaceOnUse">
<stop offset="0.1" stop-color="#FED777"/>
<stop offset="0.9" stop-color="#E8952B"/>
</linearGradient>
<clipPath id="clip0_152_442">
<rect width="444" height="410" fill="white"/>
</clipPath>
</defs>
</svg>
