<svg width="126" height="126" viewBox="0 0 126 126" fill="none" xmlns="http://www.w3.org/2000/svg">
<path d="M63 126C97.5178 126 125.5 98.0178 125.5 63.5C125.5 28.9822 97.5178 1 63 1C28.4822 1 0.5 28.9822 0.5 63.5C0.5 98.0178 28.4822 126 63 126Z" fill="white"/>
<path d="M63 118.5C93.3757 118.5 118 93.8757 118 63.5C118 33.1243 93.3757 8.5 63 8.5C32.6243 8.5 8 33.1243 8 63.5C8 93.8757 32.6243 118.5 63 118.5Z" fill="#F9DB46"/>
<path d="M63 108.5C87.8528 108.5 108 88.3528 108 63.5C108 38.6472 87.8528 18.5 63 18.5C38.1472 18.5 18 38.6472 18 63.5C18 88.3528 38.1472 108.5 63 108.5Z" fill="#EFB329"/>
<path d="M9.31995 94.5L32.1699 95.74L55.5399 74.55L49.6999 64.45L19.6699 74.09L9.31995 94.5Z" fill="white" stroke="#273857" stroke-width="2" stroke-linejoin="round"/>
<path d="M63 1.51001L50.5 20.68L57.17 51.51H68.84L75.5 20.68L63 1.51001Z" fill="white" stroke="#273857" stroke-width="2" stroke-linejoin="round"/>
<path d="M63 78.04C54.99 78.04 48.47 71.52 48.47 63.51C48.47 55.5 54.99 48.98 63 48.98C71.01 48.98 77.53 55.5 77.53 63.51C77.53 71.52 71.01 78.04 63 78.04Z" fill="white" stroke="#273857" stroke-width="2"/>
</svg>
