<svg width="784" height="470" viewBox="0 0 784 470" fill="none" xmlns="http://www.w3.org/2000/svg">
<path d="M718.93 264.1C735.06 319.77 753.82 348.76 768.82 365.07C772.94 369.54 786.47 383.61 782.79 390.06C780.63 393.85 773.44 393.42 761.84 392.61C729.42 390.33 713.2 389.19 711.94 389.06C699.55 387.79 681.3 387.37 658.06 392.06C659.25 395.15 661.13 399.39 664.05 404.06C673.23 418.73 683.27 422.45 689 437.05C691.77 444.12 690.6 446.26 690 447.05C686.31 451.86 672.66 446.31 672.04 446.05C658.8 441.43 644.83 437.06 630.13 433.05C583.97 420.48 541.07 414.45 503.41 412.06C515.53 428.72 518.52 443.68 519.38 452.05C520.17 459.78 520.63 464.95 517.38 468.04C511.01 474.1 498.07 464.85 471.48 458.04C443.79 450.96 438.89 456.15 426.58 449.04C417.14 443.59 405.45 432.14 398.64 405.05C381.62 403.1 353.88 402.48 323.8 414.05C301.56 422.6 285.17 428.9 276.9 445.04C272.7 453.24 269.52 466.07 263.93 466.03C261.13 466.01 259.04 462.78 257.94 461.03C244.29 439.29 244.34 425.44 236.56 419.57C227.82 412.99 219.72 424.38 172.13 436.03C139.07 444.12 137.54 439.96 124.23 447.03C121.85 448.29 117.66 450.68 115.25 449.03C108.28 444.25 127.16 413.16 118.24 405.04C115.18 402.25 110.44 403.64 103.27 405.04C81.42 409.32 88.97 403.58 38.41 407.04C22.2 408.15 10.4 409.5 3.49001 402.04C2.25001 400.7 0.430007 398.69 0.500007 396.04C0.690007 388.19 17.12 387.01 32.43 376.05C43.63 368.02 48.99 358.51 59.37 340.06C66.64 327.14 71.3 315.31 74.34 306.07C80.83 241.26 87.31 176.45 93.8 111.63C293.2 105.47 492.6 99.3 691.99 93.14C700.97 150.12 709.95 207.1 718.93 264.08V264.1Z" fill="#9E5B1E"/>
<path d="M715.94 375.06C693.79 372.98 682.71 371.95 675.03 367.06C666.26 361.47 666.16 357.09 651.08 337.07C639.88 322.2 624.55 301.85 620.15 304.08C615.43 306.47 622.5 333.37 633.12 355.06C641.32 371.82 650.98 384.12 658.07 392.05C681.31 387.36 699.56 387.78 711.95 389.05C713.21 389.18 729.42 390.32 761.85 392.6C769.98 393.17 781.8 394.05 782.8 390.05C783.23 388.31 780.27 386.13 778.81 385.05C772.06 380.07 764.22 380.06 762.84 380.05C746.69 379.97 755.89 378.8 715.94 375.05V375.06Z" fill="#945521"/>
<path d="M655.07 423.05C612.91 410.53 593.39 412.68 560.28 402.06C539.1 395.26 526.87 391.34 514.38 381.07C474.14 347.97 478.19 287.65 474.47 288.1C469.31 288.73 459.67 338.66 483.45 384.07C489.77 396.14 497.15 405.38 503.41 412.06C541.08 414.45 583.97 420.48 630.13 433.05C644.83 437.05 658.8 441.43 672.04 446.05C672.66 446.31 686.31 451.86 690 447.05C690.4 446.53 691.05 445.39 690.62 442.6C690.41 442.42 690.21 442.24 690 442.06C675.49 429.3 660.3 424.62 655.08 423.07L655.07 423.05Z" fill="#945521"/>
<path d="M395.64 274.1C391.46 271.75 376.14 287.08 366.7 303.09C349.08 332.99 354.86 351.38 340.76 382.06C336.75 390.8 330 402.93 318.26 416.19C319.17 415.83 320.08 415.48 321 415.13C341.24 407.5 366.88 402.46 398.64 405.05C394.03 385.94 392.84 370.18 392.65 359.07C391.74 306.04 395.64 286.09 395.64 286.09C396.52 281.59 397.9 275.37 395.64 274.09V274.1Z" fill="#945521"/>
<path d="M243.97 412.05C243.74 400.27 244.77 396.47 243.97 390.06C243.29 384.59 241.24 376.93 234.99 368.07C228.78 376.13 226.21 383.09 225.01 388.06C224.09 391.91 223.29 397.49 219.02 403.06C217.44 405.12 215.78 406.66 214.03 408.06C196.86 421.77 178.11 426.05 178.11 426.05C165.21 428.99 157.09 427.86 137.25 431.2C137.25 431.2 132.4 432.02 125.22 435.04C114.82 439.42 113.9 442.79 113.7 443.77C113.34 445.6 113.76 448.03 115.24 449.04C117.65 450.69 121.84 448.3 124.22 447.04C137.53 439.97 139.06 444.14 172.12 436.04C219.71 424.39 227.82 412.99 236.55 419.58C241.27 423.14 243.11 429.64 246.87 439.05C246.88 439.05 246.9 439.05 246.91 439.05C247.37 438.91 246.72 435.24 244.95 428.05C244.56 424.36 244.09 418.81 243.95 412.06L243.97 412.05Z" fill="#945521"/>
<path d="M141.19 353.07C144.1 339.42 146.35 322.67 144.18 322.08C141.99 321.49 134.9 337.33 131.21 347.07C128.32 354.68 127.77 357.86 124.37 362.68C120.18 368.63 115.06 372.23 110.25 375.06C101 380.51 90.9101 384.25 71.3301 389.06C60.1101 391.82 42.2201 395.8 18.4501 399.06C11.8701 399.96 6.38006 400.6 2.56006 401.01C2.76006 401.26 3.09007 401.62 3.49007 402.06C10.4001 409.51 22.2101 408.17 38.4101 407.06C88.9701 403.6 81.4201 409.34 103.27 405.06C110.43 403.66 115.17 402.27 118.24 405.06C119.76 406.44 120.45 408.49 120.63 410.96C132.2 387.98 138.02 367.98 141.19 353.08V353.07Z" fill="#945521"/>
<path d="M399.51 17.99C479.49 17.99 547.18 25.47 595.26 39.62C628.08 49.28 668.45 67.0199 674.38 96.6899C676.72 108.42 673.22 119.95 663.67 131.95C647.77 151.91 616.5 170.44 575.62 184.15C531.06 199.09 477.34 207.77 420.27 209.26C413.89 209.43 407.4 209.51 400.96 209.51C341.09 209.51 280.06 202.18 229.13 188.88C179.19 175.84 141.57 157.86 123.19 138.25C114.96 129.46 111.21 121.13 111.73 112.78C113.56 83.57 135.46 61.56 178.67 45.51C222.69 29.16 287.66 20 371.78 18.28C381.12 18.09 390.45 17.99 399.52 17.99M399.51 0C390.26 0 380.9 0.100039 371.41 0.290039C206.12 3.65004 98.59 35.39 93.8 111.65C89.61 178.31 242.49 227.5 400.96 227.5C407.55 227.5 414.14 227.42 420.74 227.24C584.62 222.96 705.63 161.37 692 93.15C679.09 28.57 557.95 -0.0100098 399.52 -0.0100098L399.51 0Z" fill="#945521"/>
<path d="M400.71 218.5C342.01 218.5 282.13 211.07 232.11 197.58C182.19 184.12 144.28 165.23 125.37 144.4C115.8 133.85 111.28 123.02 111.93 112.21C115.87 47.46 203.46 12.83 372.27 9.28003C381.38 9.09003 390.47 8.98999 399.31 8.98999C477.58 8.98999 543.97 16.59 591.32 30.98C625.41 41.34 667.42 60.84 674.02 94.91C676.79 109.2 672.71 123.55 661.91 137.55C645.48 158.85 613.77 178.42 572.6 192.67C528.64 207.88 475.74 216.73 419.63 218.24C413.37 218.41 407.01 218.49 400.7 218.49L400.71 218.5Z" fill="#E5BD95"/>
</svg>
